<svg width="239" height="63" viewBox="0 0 239 63" fill="none" xmlns="http://www.w3.org/2000/svg">
<g id="Union" filter="url(#filter0_dd_6824_6782)">
<path fill-rule="evenodd" clip-rule="evenodd" d="M37.556 20.6752C40.2721 13.8357 46.9495 9 54.7564 9H183.141C191.104 9 197.893 14.0315 200.5 21.0888L200.606 21C200.653 21.2858 200.711 21.5898 200.781 21.9099C200.965 22.4895 201.121 23.0814 201.247 23.6841C203.681 31.7706 211.888 46 227 46H183.141H170.769H66.0256H54.7564H12C26.62 46 34.5136 31.2836 36.791 23.0667C36.8432 22.8543 36.8991 22.6434 36.9586 22.434C37.137 21.7272 37.2702 21.0773 37.359 20.5L37.556 20.6752Z" fill="white"/>
<path d="M37.556 20.6752L37.2237 21.0488L37.7571 21.5234L38.0207 20.8598L37.556 20.6752ZM200.5 21.0888L200.031 21.2621L200.277 21.928L200.821 21.4721L200.5 21.0888ZM200.606 21L201.099 20.9194L200.958 20.0528L200.285 20.6167L200.606 21ZM200.781 21.9099L200.293 22.0172L200.298 22.0393L200.305 22.0608L200.781 21.9099ZM201.247 23.6841L200.758 23.7867L200.762 23.8077L200.768 23.8282L201.247 23.6841ZM36.791 23.0667L37.2728 23.2003L37.2748 23.1932L37.2765 23.1861L36.791 23.0667ZM36.9586 22.434L37.4396 22.5707L37.4416 22.5635L37.4434 22.5564L36.9586 22.434ZM37.359 20.5L37.6913 20.1264L37.0045 19.5155L36.8648 20.424L37.359 20.5ZM54.7564 8.5C46.7377 8.5 39.8804 13.4672 37.0913 20.4907L38.0207 20.8598C40.6637 14.2042 47.1613 9.5 54.7564 9.5V8.5ZM183.141 8.5H54.7564V9.5H183.141V8.5ZM200.969 20.9155C198.291 13.6682 191.32 8.5 183.141 8.5V9.5C190.888 9.5 197.494 14.3947 200.031 21.2621L200.969 20.9155ZM200.285 20.6167L200.179 20.7056L200.821 21.4721L200.927 21.3833L200.285 20.6167ZM201.27 21.8026C201.201 21.4905 201.144 21.1954 201.099 20.9194L200.112 21.0806C200.161 21.3762 200.221 21.6891 200.293 22.0172L201.27 21.8026ZM201.736 23.5815C201.607 22.9624 201.447 22.3544 201.258 21.759L200.305 22.0608C200.483 22.6246 200.635 23.2004 200.758 23.7867L201.736 23.5815ZM227 45.5C219.618 45.5 213.913 42.0292 209.736 37.5341C205.552 33.0321 202.925 27.5246 201.726 23.54L200.768 23.8282C202.003 27.9301 204.697 33.5806 209.003 38.2149C213.316 42.8561 219.27 46.5 227 46.5V45.5ZM183.141 46.5H227V45.5H183.141V46.5ZM170.769 46.5H183.141V45.5H170.769V46.5ZM66.0256 46.5H170.769V45.5H66.0256V46.5ZM66.0256 45.5H54.7564V46.5H66.0256V45.5ZM54.7564 45.5H12V46.5H54.7564V45.5ZM12 46.5C19.4968 46.5 25.2525 42.7218 29.4015 37.9425C33.5454 33.1691 36.1185 27.3649 37.2728 23.2003L36.3092 22.9332C35.186 26.9853 32.6737 32.6478 28.6464 37.2869C24.6243 41.92 19.1232 45.5 12 45.5V46.5ZM36.4776 22.2974C36.4165 22.5125 36.3591 22.7292 36.3055 22.9473L37.2765 23.1861C37.3273 22.9795 37.3817 22.7744 37.4396 22.5707L36.4776 22.2974ZM37.4434 22.5564C37.625 21.8367 37.7616 21.1713 37.8532 20.576L36.8648 20.424C36.7787 20.9834 36.6489 21.6176 36.4738 22.3117L37.4434 22.5564ZM37.0267 20.8736L37.2237 21.0488L37.8883 20.3016L37.6913 20.1264L37.0267 20.8736Z" fill="#E7E5E4"/>
</g>
<defs>
<filter id="filter0_dd_6824_6782" x="0" y="0.5" width="239" height="62" filterUnits="userSpaceOnUse" color-interpolation-filters="sRGB">
<feFlood flood-opacity="0" result="BackgroundImageFix"/>
<feColorMatrix in="SourceAlpha" type="matrix" values="0 0 0 0 0 0 0 0 0 0 0 0 0 0 0 0 0 0 127 0" result="hardAlpha"/>
<feMorphology radius="2" operator="erode" in="SourceAlpha" result="effect1_dropShadow_6824_6782"/>
<feOffset dy="4"/>
<feGaussianBlur stdDeviation="3"/>
<feComposite in2="hardAlpha" operator="out"/>
<feColorMatrix type="matrix" values="0 0 0 0 0 0 0 0 0 0 0 0 0 0 0 0 0 0 0.05 0"/>
<feBlend mode="normal" in2="BackgroundImageFix" result="effect1_dropShadow_6824_6782"/>
<feColorMatrix in="SourceAlpha" type="matrix" values="0 0 0 0 0 0 0 0 0 0 0 0 0 0 0 0 0 0 127 0" result="hardAlpha"/>
<feMorphology radius="3" operator="erode" in="SourceAlpha" result="effect2_dropShadow_6824_6782"/>
<feOffset dy="4"/>
<feGaussianBlur stdDeviation="7.5"/>
<feComposite in2="hardAlpha" operator="out"/>
<feColorMatrix type="matrix" values="0 0 0 0 0 0 0 0 0 0 0 0 0 0 0 0 0 0 0.1 0"/>
<feBlend mode="normal" in2="effect1_dropShadow_6824_6782" result="effect2_dropShadow_6824_6782"/>
<feBlend mode="normal" in="SourceGraphic" in2="effect2_dropShadow_6824_6782" result="shape"/>
</filter>
</defs>
</svg>
