<svg width="40" height="40" viewBox="0 0 40 40" fill="none" xmlns="http://www.w3.org/2000/svg">
<g id="Calque_1">
<path id="Vector" d="M36.669 9.09368C34.6266 7.195 31.9787 7 30.9456 7H20.5216L20.5592 7.80053C20.6311 9.39474 21.6711 12.4053 25.1092 12.4053H30.9285C31.0687 12.4018 32.3071 12.4189 32.9913 13.0553C33.4292 13.4624 33.6413 14.1397 33.6413 15.125C33.6413 16.1103 33.4327 16.7774 32.9982 17.1879C32.3311 17.8174 31.1713 17.8516 30.949 17.8516H30.925H22.564V24.6937C22.5811 25.0768 22.4819 26.175 21.914 26.7839C21.5069 27.2218 20.8295 27.4374 19.8442 27.4374C18.859 27.4374 18.1919 27.2287 17.7813 26.7942C17.1177 26.0929 17.1142 24.8545 17.1177 24.6937V22.1039L17.1108 21.3376V20.8279C17.1416 20.1813 17.1587 17.1058 15.0137 14.8C14.0045 13.7121 12.14 12.4224 8.98582 12.4224C5.83161 12.4224 3.9603 13.7121 2.95108 14.8C0.802664 17.1024 0.819769 20.1847 0.850559 20.8279V30.1434L0.857401 30.9097H1.66819C3.3274 30.8174 6.16345 29.7876 6.25582 26.5171V20.6876L6.24898 20.5782C6.24556 20.4276 6.24556 19.1789 6.91266 18.4742C7.32319 18.0432 7.99714 17.8311 8.97556 17.8311C9.95398 17.8311 10.6313 18.0397 11.0385 18.4742C11.7021 19.1789 11.7021 20.4174 11.7021 20.5782L11.6953 23.1679L11.7056 23.9342V24.4439C11.6782 25.0939 11.6577 28.1695 13.8027 30.4718C14.8119 31.5563 16.6763 32.8495 19.834 32.8495C22.9916 32.8495 24.8561 31.5529 25.8653 30.4718C28.0069 28.1695 27.9932 25.0905 27.9624 24.4439V23.2568H30.6342C30.7163 23.2637 30.8258 23.2637 30.9627 23.2637C31.9992 23.2637 34.6232 23.0584 36.6656 21.1597C37.75 20.1505 39.0432 18.2861 39.0432 15.1284C39.0432 11.9708 37.75 10.1063 36.6656 9.09711" fill="#B1E02F"/>
</g>
</svg>
