<svg width="79" height="30" viewBox="0 0 79 30" fill="none" xmlns="http://www.w3.org/2000/svg">
<g clip-path="url(#clip0_6441_76644)">
<mask id="mask0_6441_76644" style="mask-type:luminance" maskUnits="userSpaceOnUse" x="0" y="0" width="79" height="30">
<path d="M60.5191 0.430866H58.8434C58.8434 0.430866 60.2967 4.93169 63.576 5.08829H63.7514C63.7514 5.08829 63.4852 5.10082 63.3129 5.13214C63.1406 5.16346 62.9652 5.21044 62.7303 5.28875C61.8408 5.56437 60.7571 6.23151 60.5535 7.85707C60.5316 8.03246 60.5191 8.22039 60.5191 8.42398V11.0831V12.7306C60.5191 17.1907 59.119 20.1286 56.1686 20.1975C55.6267 20.185 55.1381 20.0754 54.7028 19.8781C53.5063 19.3362 52.692 18.1366 52.2441 16.4453C51.9653 15.3898 51.8338 14.1463 51.8338 12.7557V8.71526V8.21099C51.8338 7.82575 51.6772 6.83914 51.0319 6.15321C49.895 5.01626 48.6672 5.11022 48.1629 5.11022H47.2139V10.8075C47.2139 13.6201 47.2233 13.9647 47.2327 14.3029C47.2358 14.4 47.2421 14.4971 47.2452 14.5942C47.2578 14.851 47.2734 15.1016 47.2954 15.349L47.3079 15.5432C45.7763 17.0122 44.8868 17.4569 43.7091 17.7795C40.4611 18.3966 39.321 15.4148 39.177 14.9889C38.6101 13.4698 38.4159 11.4809 38.4159 9.37927H41.4101C42.5878 9.37927 44.6926 8.67141 44.6926 5.22924C44.6926 5.18852 44.6926 5.15094 44.6926 5.11022H38.4127V1.23895C38.4127 0.75034 38.1089 0.446527 37.6516 0.446527H34.4506C33.9933 0.446527 33.6864 0.75034 33.6864 1.23895V9.2853C32.2018 5.81494 29.2952 3.79161 25.7309 3.79161C20.7602 3.79161 16.5789 7.81635 16.5789 14.9826V20.8835C16.4943 22.1206 15.9744 22.7095 15.2509 22.7095C13.9385 22.7095 11.602 20.1913 9.12137 15.4806C7.524 12.4456 6.20225 9.54527 5.61655 8.00741C5.485 7.66914 5.30961 7.55012 5.00579 7.55012H0.796256C0.33897 7.55012 0.0351562 7.85707 0.0351562 8.34567V29.8068H0.930936C2.22762 29.7598 4.75836 29.052 4.75836 26.1235V17.742C6.31501 21.4911 8.17547 24.144 10.0954 25.7883C11.8024 27.2855 13.6034 27.987 15.2509 27.987C18.195 27.987 20.9732 25.8948 21.0014 19.7997L21.1831 15.0734C21.2708 10.82 22.7178 8.06065 25.5743 8.06065C28.5936 8.06065 30.025 11.0174 30.025 15.5338V16.7084H28.5686C28.5686 16.7084 28.5654 16.7084 28.556 16.7084H27.6853C26.7237 16.7585 24.2369 17.2377 24.2369 20.8709V20.9085H24.2744H30.025V24.8675C30.025 25.3561 30.3288 25.6599 30.7861 25.6599H33.9871C34.4444 25.6599 34.7513 25.3561 34.7513 24.8675V16.5236L34.8046 16.6332C36.1326 19.734 38.657 21.7792 41.6513 22.0517C42.0366 22.0768 43.6371 22.1332 44.893 21.5694C44.893 21.5694 44.8962 21.5694 44.8993 21.5694C44.9525 21.5443 45.0027 21.5161 45.0559 21.4911C46.1333 20.9367 47.311 19.9125 47.809 18.0082C47.8466 18.1178 47.8905 18.2494 47.9312 18.359C47.9312 18.359 49.491 23.4486 54.5242 24.3256C55.9337 24.5323 58.0635 24.7015 60.5253 23.2545V23.6898C60.5253 24.1784 60.8291 24.4822 61.2896 24.4822H64.4906C64.9478 24.4822 65.2548 24.1784 65.2548 23.6898V5.10709H70.3538C72.7624 5.10709 73.9213 6.25343 73.9213 7.65661C73.9213 9.35421 73.4452 10.1654 71.0899 10.4285C69.9592 10.629 68.1614 11.4402 68.1614 14.5347C68.1614 14.5785 68.1614 14.6224 68.1614 14.6631C68.697 14.6913 68.9287 14.7038 69.4236 14.7038C76.3456 14.7038 78.5913 12.2013 78.5913 7.65661C78.5913 4.05783 75.7849 0.427734 70.357 0.427734L60.5253 0.433999L60.5191 0.430866Z" fill="white"/>
</mask>
<g mask="url(#mask0_6441_76644)">
<path d="M78.5819 0.423828H0.0351562V29.806H78.5819V0.423828Z" fill="url(#paint0_linear_6441_76644)"/>
</g>
</g>
<defs>
<linearGradient id="paint0_linear_6441_76644" x1="11.1541" y1="25.4838" x2="47.0472" y2="46.1545" gradientUnits="userSpaceOnUse">
<stop stop-color="#ADDC2B"/>
<stop offset="0.3" stop-color="#A4D84C"/>
<stop offset="0.43" stop-color="#96CC5C"/>
<stop offset="0.58" stop-color="#86C76F"/>
<stop offset="0.61" stop-color="#75C679"/>
<stop offset="0.74" stop-color="#36C3A2"/>
<stop offset="0.83" stop-color="#0FC1BB"/>
<stop offset="0.88" stop-color="#00C1C5"/>
<stop offset="0.89" stop-color="#00C2CA"/>
<stop offset="0.96" stop-color="#00CBE2"/>
<stop offset="1" stop-color="#2AC5E7"/>
</linearGradient>
<clipPath id="clip0_6441_76644">
<rect width="78.5561" height="29.3791" fill="white" transform="translate(0.0351562 0.427734)"/>
</clipPath>
</defs>
</svg>
