<svg width="262" height="180" viewBox="0 0 262 180" fill="none" xmlns="http://www.w3.org/2000/svg">
<rect x="41" width="180" height="180" rx="90" fill="#F7FFE1"/>
<g clip-path="url(#clip0_6360_2829)">
<path d="M-996.353 77.1719H260.721C261.138 77.1719 261.477 77.5097 261.477 77.9267C261.477 78.3437 261.138 78.6815 260.721 78.6815H-996.353" fill="#95C413"/>
<mask id="mask0_6360_2829" style="mask-type:luminance" maskUnits="userSpaceOnUse" x="178" y="55" width="57" height="23">
<path d="M178.722 55.9062H234.246V77.5388H178.722V55.9062Z" fill="white"/>
</mask>
<g mask="url(#mask0_6360_2829)">
<path d="M200.809 69.0938C202.1 69.0948 203.152 70.1463 203.152 71.4353C203.151 72.7264 202.099 73.7758 200.808 73.7737C199.516 73.7737 198.464 72.7254 198.464 71.4353C198.465 70.1442 199.518 69.0938 200.809 69.0938Z" fill="#95C413"/>
<path d="M200.72 65.3594C203.677 65.3594 206.149 67.4782 206.69 70.2758C206.708 70.3666 206.723 70.4584 206.736 70.5503C206.78 70.8396 206.801 71.1352 206.801 71.436C206.801 74.7847 204.07 77.5095 200.715 77.5085C197.363 77.5064 194.634 74.7816 194.634 71.4329C194.635 68.0831 197.367 65.3583 200.72 65.3604M200.717 74.8544C202.606 74.8544 204.143 73.3215 204.143 71.4329C204.145 69.5474 202.608 68.0124 200.718 68.0124C198.829 68.0103 197.292 69.5453 197.292 71.4329C197.29 73.3205 198.827 74.8523 200.716 74.8544" fill="#95C413"/>
<path d="M183.843 68.8828C186.232 68.8849 188.174 70.8264 188.172 73.2102C188.172 75.5961 186.228 77.5375 183.84 77.5365C181.452 77.5354 179.508 75.5929 179.508 73.207C179.508 70.8221 181.454 68.8828 183.843 68.8828ZM183.841 75.2456C184.967 75.2456 185.88 74.3345 185.88 73.2091C185.881 72.0848 184.97 71.1748 183.843 71.1737C182.716 71.1737 181.804 72.0848 181.804 73.207C181.802 74.3334 182.716 75.2456 183.841 75.2456Z" fill="#95C413"/>
<path d="M206.925 64.3925C207.295 66.0838 206.4 66.7436 205.803 66.9885C204.953 65.8156 203.006 64.8708 201.302 64.7536C197.575 64.497 194.347 67.3052 194.09 71.0266C194.012 72.1562 194.218 73.2383 194.645 74.2074H188.462C188.507 73.9931 188.54 73.7725 188.556 73.5476C188.734 70.9611 186.779 68.7188 184.189 68.5404C182.122 68.3979 180.275 69.613 179.523 71.4246L179.371 70.6434C178.722 67.2767 181.479 65.9011 182.964 65.5633V65.558L189.64 63.3083C190.232 57.7289 193.511 56.9846 195.965 56.442C195.971 56.4398 195.973 56.4399 195.973 56.4399C197.63 55.9057 202.23 56.2308 202.23 56.2308C203.597 56.3121 205.774 57.0194 206.238 60.5877C206.244 60.6395 206.252 60.6901 206.259 60.7398L206.923 64.3936L206.925 64.3925ZM198.366 63.7908L203.374 63.7696C204.05 63.7696 204.468 63.3516 204.468 62.7203L204.045 58.3158C204.045 57.6824 203.628 57.2644 202.951 57.2644L198.366 57.2855V63.7908ZM190.837 65.3099C190.887 68.0083 191.754 68.5911 192.748 68.7484C192.748 68.7484 194.211 64.6079 197.583 63.9174V57.2665C197.454 57.2834 196.687 57.2992 196.551 57.314C194.363 57.7014 190.853 59.2575 190.836 65.1927C190.836 65.1927 190.836 65.2709 190.836 65.3089" fill="#95C413"/>
<path d="M206.692 70.2773C206.701 70.365 206.716 70.4568 206.738 70.5518C206.726 70.46 206.71 70.3681 206.692 70.2773Z" fill="#95C413"/>
<path d="M206.692 70.2771C206.71 70.3679 206.724 70.4598 206.738 70.5516C206.837 70.9729 207.08 71.4363 207.635 71.7393C208.489 72.207 209.699 72.0307 210.05 72.0275C215.836 71.9768 217.35 76.2588 217.35 76.2588H220.208C220.208 76.2588 219.859 74.31 218.023 72.4962C221.256 73.5984 222.197 76.2588 222.197 76.2588H225.055C225.055 76.2588 224.748 74.5422 223.194 72.832C225.763 74.0608 226.541 76.2588 226.541 76.2588H229.399C229.399 76.2588 229.05 74.31 227.214 72.4962C230.447 73.5984 231.388 76.2588 231.388 76.2588H234.246C234.246 76.2588 232.834 68.3748 220.753 69.5635C220.753 69.5635 220.751 69.5751 220.746 69.5962C219.394 69.4167 217.835 69.383 216.037 69.5519C214.738 69.4094 213.255 69.3977 211.563 69.5645C211.563 69.5645 211.561 69.5762 211.558 69.5973C210.173 69.4136 208.57 69.383 206.716 69.5645C206.716 69.5645 206.647 69.8749 206.692 70.2771Z" fill="#95C413"/>
</g>
<mask id="mask1_6360_2829" style="mask-type:luminance" maskUnits="userSpaceOnUse" x="51" y="30" width="49" height="49">
<path d="M51.3304 30.793H99.2656V78.775H51.3304V30.793Z" fill="white"/>
</mask>
<g mask="url(#mask1_6360_2829)">
<path fill-rule="evenodd" clip-rule="evenodd" d="M68.8322 78.4869C70.1695 78.8627 71.2689 78.6357 72.324 78.2736C73.1644 77.9854 73.9752 77.5853 74.7533 77.1546C75.1592 76.9297 75.4331 76.9149 75.8231 77.163C77.208 78.0456 78.7197 78.5914 80.371 78.6758C80.7568 78.6959 81.1469 78.6178 81.6681 78.5734C81.075 78.0899 80.5613 77.7468 80.1426 77.314C79.0633 76.2013 78.559 74.7993 78.3286 73.3023C77.8719 70.34 77.8243 67.3618 78.1615 64.3858C78.4121 62.174 79.5792 60.5007 81.3668 59.2265C81.5899 59.0681 81.8816 58.9573 82.0222 58.7451C82.1745 58.5171 82.3225 58.1201 82.2199 57.9354C82.1174 57.7495 81.6353 57.5806 81.4408 57.6693C80.2452 58.2141 79.0316 58.7504 77.9279 59.4514C76.9723 60.0584 76.154 60.8818 75.136 61.7243C74.8315 61.3822 74.5049 60.9441 74.1095 60.582C72.7373 59.3215 71.159 58.3883 69.4137 57.739C69.0172 57.5912 68.5901 57.3948 68.3111 57.928C68.0309 58.4632 68.4284 58.6986 68.7889 58.9309C71.178 60.4775 72.4836 62.6449 72.5132 65.5101C72.5344 67.5962 72.5407 69.6854 72.4582 71.7694C72.4223 72.6773 72.2098 73.5926 71.9698 74.4752C71.5121 76.1622 70.6072 77.5536 68.8322 78.4858" fill="#95C413"/>
<path fill-rule="evenodd" clip-rule="evenodd" d="M79.037 55.348C81.7306 56.6402 85.1029 55.31 85.9688 52.657C83.7826 51.2634 79.6417 52.5429 79.037 55.348Z" fill="#95C413"/>
<path fill-rule="evenodd" clip-rule="evenodd" d="M71.5664 55.3292C70.7365 52.633 67.2046 51.2669 64.6061 52.6066C65.2795 55.2458 68.8813 56.6795 71.5664 55.3292Z" fill="#95C413"/>
<path fill-rule="evenodd" clip-rule="evenodd" d="M86.2416 49.483C88.3379 50.753 91.4628 49.6287 92.187 47.362C92.2356 47.209 92.0622 46.8585 91.9047 46.7846C89.727 45.7531 86.897 47.0971 86.2416 49.483Z" fill="#95C413"/>
<path fill-rule="evenodd" clip-rule="evenodd" d="M91.25 57.7672C89.789 55.4794 86.5076 55.1691 84.7422 57.1095C85.978 59.3317 89.3598 59.6917 91.25 57.7672Z" fill="#95C413"/>
<path fill-rule="evenodd" clip-rule="evenodd" d="M65.832 57.0933C64.0053 55.1677 60.7355 55.496 59.3496 57.7436C60.9491 59.7188 64.6544 59.3472 65.832 57.0933Z" fill="#95C413"/>
<path fill-rule="evenodd" clip-rule="evenodd" d="M64.3203 49.5018C63.7621 47.1275 60.7493 45.7086 58.6202 46.8076C58.4764 46.8815 58.3474 47.2478 58.4045 47.4083C59.2143 49.6654 62.1976 50.7306 64.3203 49.5007" fill="#95C413"/>
<path fill-rule="evenodd" clip-rule="evenodd" d="M85.9958 44.6685C88.144 44.5692 89.9221 42.8769 90.0764 40.8288C90.1155 40.3052 89.9559 40.1183 89.4326 40.1099C87.2908 40.074 85.2632 41.9141 85.1046 44.0646C85.0645 44.6146 85.1966 44.7043 85.9958 44.6674" fill="#95C413"/>
<path fill-rule="evenodd" clip-rule="evenodd" d="M65.4453 44.5623C65.5521 42.1553 63.4589 40.0323 61.1078 40.1157C60.704 40.1304 60.4767 40.2107 60.4894 40.7079C60.5497 43.1086 63.017 45.0712 65.4453 44.5623Z" fill="#95C413"/>
<path fill-rule="evenodd" clip-rule="evenodd" d="M74.5436 53.1155C77.0216 51.8856 77.8429 49.0004 76.3555 46.9375C74.1831 47.4928 72.7433 50.9904 74.5436 53.1155Z" fill="#95C413"/>
<path fill-rule="evenodd" clip-rule="evenodd" d="M80.5358 34.6523C78.1837 35.7651 77.597 38.8161 79.319 40.8578C81.6099 40.0618 82.3636 36.5252 80.5358 34.6523Z" fill="#95C413"/>
<path fill-rule="evenodd" clip-rule="evenodd" d="M70.0642 34.6641C68.2491 36.4904 68.8474 39.7769 71.1943 40.8737C73.0158 39.0949 72.4058 35.7483 70.0642 34.6641Z" fill="#95C413"/>
<path fill-rule="evenodd" clip-rule="evenodd" d="M88.3472 53.1571C90.1623 55.0774 93.3115 54.8177 94.6953 52.6673C93.2375 50.6899 89.824 50.9317 88.3472 53.1571Z" fill="#95C413"/>
<path fill-rule="evenodd" clip-rule="evenodd" d="M55.8694 52.6269C57.1369 54.8027 60.5578 55.0877 62.1953 53.1547C60.9204 50.9715 57.5714 50.6928 55.8694 52.6269Z" fill="#95C413"/>
<path fill-rule="evenodd" clip-rule="evenodd" d="M74.8454 38.6641C73.3348 40.7364 74.1921 43.7515 76.5739 44.7365C78.1818 42.8478 77.2325 39.5139 74.8454 38.6641Z" fill="#95C413"/>
<path fill-rule="evenodd" clip-rule="evenodd" d="M72.7945 46.1931C72.9954 45.2471 72.6455 44.4511 72.063 43.7428C71.1538 42.6364 69.9085 42.1972 68.5279 42.1096C68.3757 42.1001 68.0511 42.4263 68.068 42.5667C68.123 43.0481 68.2266 43.5485 68.4349 43.9824C69.1643 45.4942 71.1211 46.4707 72.7945 46.1931Z" fill="#95C413"/>
<path fill-rule="evenodd" clip-rule="evenodd" d="M70.313 50.7495C71.1746 50.7527 71.2919 50.6302 71.0266 49.792C70.5329 48.2327 69.3489 47.4641 67.8213 47.1274C67.6532 47.0904 67.4757 47.0682 67.3033 47.0756C66.9175 47.0925 66.5316 47.1327 66.1468 47.1643C66.205 47.5676 66.1881 48.0025 66.3371 48.3689C66.9228 49.811 68.5191 50.7421 70.313 50.7495Z" fill="#95C413"/>
<path fill-rule="evenodd" clip-rule="evenodd" d="M80.3306 50.7492C82.3708 50.7175 84.1035 49.4528 84.4566 47.7436C84.5285 47.3973 84.5507 47.1281 84.0855 47.0289C82.3835 46.6668 79.987 48.1078 79.5398 49.7864C79.3083 50.6553 79.3982 50.764 80.3306 50.7492Z" fill="#95C413"/>
<path fill-rule="evenodd" clip-rule="evenodd" d="M83.2347 41.6172C80.8561 41.6056 78.9702 43.6907 79.4385 45.7651C81.65 45.9953 83.7305 43.7519 83.2347 41.6172Z" fill="#95C413"/>
<path fill-rule="evenodd" clip-rule="evenodd" d="M52.0897 56.7722C53.6321 58.3484 56.3564 57.9726 57.3438 56.047C55.7506 54.4761 53.0644 54.8466 52.0897 56.7722Z" fill="#95C413"/>
<path fill-rule="evenodd" clip-rule="evenodd" d="M98.5039 56.7691C97.4394 54.8477 94.9392 54.4898 93.2404 56.0164C94.0999 57.9505 96.8907 58.3495 98.5039 56.7691Z" fill="#95C413"/>
<path fill-rule="evenodd" clip-rule="evenodd" d="M94.0486 49.3376C95.7305 50.7765 98.2 50.2507 99.2656 48.2671C97.8987 46.7405 95.1935 47.2779 94.0486 49.3376Z" fill="#95C413"/>
<path fill-rule="evenodd" clip-rule="evenodd" d="M66.4471 39.9404C67.1754 38.1605 65.7018 35.7366 63.801 35.6331C63.6213 35.6236 63.2989 35.8527 63.2598 36.0216C62.8295 37.8723 64.4945 39.8982 66.4471 39.9404Z" fill="#95C413"/>
<path fill-rule="evenodd" clip-rule="evenodd" d="M84.1063 39.9605C86.1138 39.8317 87.5642 38.0919 87.3549 36.1441C87.3052 35.6849 87.1192 35.5539 86.6784 35.6226C84.8062 35.9129 83.4805 38.0961 84.1063 39.9605Z" fill="#95C413"/>
<path fill-rule="evenodd" clip-rule="evenodd" d="M56.5234 49.3463C55.4673 47.3268 53.0306 46.7926 51.3286 48.1777C52.0845 50.1709 54.7517 50.7948 56.5234 49.3463Z" fill="#95C413"/>
<path fill-rule="evenodd" clip-rule="evenodd" d="M75.7392 36.1011C77.4993 34.792 77.4919 32.0735 75.7244 30.793C73.9663 32.0725 73.9738 34.8511 75.7392 36.1011Z" fill="#95C413"/>
<path fill-rule="evenodd" clip-rule="evenodd" d="M91.279 44.3372C93.0868 45.1121 95.3237 43.992 95.811 42.0865C95.9072 41.7106 95.8237 41.5438 95.4442 41.4499C93.5054 40.9716 91.4799 42.3683 91.279 44.3372Z" fill="#95C413"/>
<path fill-rule="evenodd" clip-rule="evenodd" d="M59.3047 44.3636C59.0457 42.3261 57.0371 40.9547 55.1141 41.4488C54.7272 41.548 54.6691 41.7264 54.7716 42.0949C55.2949 43.9878 57.3025 45.0202 59.3047 44.3636Z" fill="#95C413"/>
<path fill-rule="evenodd" clip-rule="evenodd" d="M83.3503 60.5172C83.6251 62.5452 85.4942 63.8564 87.4647 63.4574C87.8717 63.375 88.0007 63.2156 87.8854 62.7923C87.3717 60.9036 85.2743 59.8205 83.3513 60.5172" fill="#95C413"/>
<path fill-rule="evenodd" clip-rule="evenodd" d="M75.266 55.298C74.2427 55.3075 73.5037 56.0835 73.5281 57.1191C73.5513 58.102 74.3156 58.8357 75.3094 58.8283C76.3211 58.8209 77.0716 58.0323 77.0463 57.003C77.0219 56.017 76.2608 55.2875 75.266 55.297" fill="#95C413"/>
<path fill-rule="evenodd" clip-rule="evenodd" d="M67.2333 60.5387C65.3601 59.7775 63.1453 60.923 62.6812 62.8338C62.5692 63.2951 62.7764 63.3944 63.1517 63.4609C65.1349 63.8135 66.8802 62.5878 67.2344 60.5387" fill="#95C413"/>
</g>
<mask id="mask2_6360_2829" style="mask-type:luminance" maskUnits="userSpaceOnUse" x="60" y="67" width="16" height="12">
<path d="M60.2336 67.1875H75.2969V78.7739H60.2336V67.1875Z" fill="white"/>
</mask>
<g mask="url(#mask2_6360_2829)">
<path d="M60.4609 70.3578C60.7643 69.8162 61.758 68.2411 63.2877 67.7618C63.5541 67.6605 63.8374 67.5876 64.1355 67.557C64.1355 67.5507 64.1355 67.5443 64.1376 67.5391C64.1376 67.5391 64.1588 67.5433 64.1968 67.5528C64.5066 67.5264 64.8322 67.5475 65.1715 67.6277C65.6716 67.1896 66.5405 67.1875 66.5405 67.1875C66.5405 67.5538 66.4031 67.8241 66.216 68.0226C66.1367 68.1186 66.0405 68.1968 65.9358 68.2633C66.3809 68.5293 66.8112 68.8787 67.0976 69.3253H72.6032C73.5578 69.3253 75.2588 69.8553 75.2937 72.4112H75.2969C75.2969 72.4386 75.2948 72.4671 75.2948 72.4956C75.2948 72.5241 75.2948 72.5526 75.2969 72.5801H75.2937C75.2789 73.6537 74.9713 74.3705 74.5463 74.8393C74.5251 76.634 74.5177 77.1038 74.5167 77.1935L74.5072 78.0201C74.5072 78.0201 74.5072 78.0444 74.5061 78.1236C74.5061 78.2028 74.4712 78.4044 74.337 78.5427C74.1012 78.7729 73.8496 78.7507 73.7471 78.7496C73.6646 78.7496 73.5674 78.7475 73.5674 78.7475H73.5526L73.5653 77.581C73.5716 77.0056 73.5737 76.9349 73.5769 76.8652C73.5769 76.8536 73.5811 76.4904 73.5906 75.4843C73.5071 75.516 73.4226 75.5434 73.3401 75.5656C73.3253 76.6847 73.32 77.1165 73.3189 77.1925L73.3094 78.0191C73.3094 78.0191 73.3094 78.0434 73.3084 78.1226C73.3073 78.2017 73.2735 78.4034 73.1392 78.5417C72.9035 78.7718 72.6519 78.7496 72.5494 78.7486C72.4669 78.7486 72.3696 78.7465 72.3696 78.7465H72.3548L72.3675 77.5799C72.3738 77.0046 72.376 76.9338 72.3791 76.8641C72.3791 76.8525 72.3823 76.4968 72.3908 75.6649H68.0099C67.9951 76.8536 67.9888 76.9908 67.9888 77.0689L67.9793 77.8956C67.9793 77.8956 67.9793 77.9199 67.9782 77.999C67.9772 78.0782 67.9434 78.2798 67.8102 78.4181C67.5744 78.6483 67.3228 78.6261 67.2203 78.6251C67.1378 78.6251 67.0406 78.623 67.0406 78.623H67.0258L67.0384 77.4564C67.0448 76.881 67.0469 76.8103 67.0501 76.7406C67.0501 76.729 67.0543 76.6657 67.0638 75.6649H66.8143C66.7995 76.8536 66.7932 76.9908 66.7921 77.0689L66.7826 77.8956C66.7826 77.8956 66.7826 77.9199 66.7816 77.999C66.7816 78.0782 66.7467 78.2798 66.6124 78.4181C66.3767 78.6483 66.1251 78.6261 66.0225 78.6251C65.9401 78.6251 65.8428 78.623 65.8428 78.623H65.828L65.8407 77.4564C65.847 76.881 65.8491 76.8103 65.8523 76.7406C65.8523 76.729 65.8565 76.6636 65.8671 75.6005C65.4929 75.5202 65.088 75.3534 64.7339 75.0504C63.9632 74.5817 63.312 73.7466 63.312 72.3161L63.3384 72.1166C63.3427 71.8379 63.3786 71.5866 63.4388 71.3586V71.3523H63.441C63.4473 71.3301 63.4526 71.3079 63.4589 71.2868C63.2221 71.3597 62.979 71.4093 62.7316 71.4262C62.3193 71.48 61.8849 71.4631 61.4461 71.3428C61.1258 71.6067 60.8055 71.4029 60.6734 71.2657L60.6596 71.2509L60.593 71.177L60.5169 71.0926L60.5032 71.0778C60.389 70.9405 60.2346 70.6323 60.4609 70.3567" fill="#95C413"/>
</g>
<mask id="mask3_6360_2829" style="mask-type:luminance" maskUnits="userSpaceOnUse" x="107" y="38" width="50" height="40">
<path d="M107.905 38.9375H156.391V77.3273H107.905V38.9375Z" fill="white"/>
</mask>
<g mask="url(#mask3_6360_2829)">
<path d="M152.229 63.0837V61.9963C152.229 61.8696 152.237 61.7493 152.229 61.631C152.229 61.6046 152.229 61.5772 152.229 61.5529V61.5487H156.391L149.031 47.8076L132.17 38.9375L115.868 47.8076L107.904 61.5487H112.112L112.116 63.0753V72.3623C112.116 72.3623 112.116 72.4573 112.116 72.5344V73.6165C112.116 73.7421 112.108 73.8625 112.116 73.9797C112.116 74.0061 112.119 74.062 112.119 74.062C112.354 76.6168 114.883 77.264 116.113 77.3094V77.3136H116.247H116.249L116.785 77.3157L116.797 77.3242H125.666V70.1327H125.665L125.663 65.7377C125.656 64.1373 127.041 63.7446 127.75 63.7182V63.7161H127.821C127.833 63.7161 127.843 63.714 127.854 63.714H136.171L136.177 63.7192H136.47C136.47 63.7192 136.47 63.7203 136.471 63.7203H136.544V63.7235C137.216 63.7477 138.492 64.1025 138.621 65.4992L138.624 69.305C138.624 69.3187 138.624 69.3335 138.624 69.3483C138.63 69.4127 138.633 65.6744 138.632 65.743L138.63 70.138C138.638 72.3571 138.626 76.6971 138.624 77.3252H148.219C148.239 77.3252 148.259 77.3231 148.279 77.3221H148.408V77.3168C149.707 77.2682 152.239 76.5514 152.228 73.6229V69.1076C152.234 66.2814 152.237 65.7124 152.228 63.0805" fill="#95C413"/>
</g>
<mask id="mask4_6360_2829" style="mask-type:luminance" maskUnits="userSpaceOnUse" x="148" y="66" width="24" height="12">
<path d="M148.392 66.3477H171.871V77.9341H148.392V66.3477Z" fill="white"/>
</mask>
<g mask="url(#mask4_6360_2829)">
<path d="M154.1 80.6918H159.284C160.695 80.6918 162.052 80.0626 162.975 78.9932H166.192C168.823 78.9932 171.026 76.9335 171.122 74.3079C171.222 71.543 168.999 69.2616 166.253 69.2616H166.124C165.23 67.8554 163.687 66.9961 162.01 66.9961H158.264C155.962 66.9961 154.003 68.6113 153.512 70.7924C153.484 70.9128 153.388 71.0025 153.267 71.0226C150.863 71.409 149.039 73.5605 149.176 76.0942C149.317 78.6839 151.502 80.6918 154.099 80.6918H154.1Z" stroke="#95C413" stroke-width="3.33645" stroke-miterlimit="10"/>
</g>
<mask id="mask5_6360_2829" style="mask-type:luminance" maskUnits="userSpaceOnUse" x="34" y="59" width="30" height="19">
<path d="M34.9526 59.1523H63.375V77.4246H34.9526V59.1523Z" fill="white"/>
</mask>
<g mask="url(#mask5_6360_2829)">
<path d="M63.1873 64.9883C63.1978 64.9799 63.2084 64.9704 63.219 64.9619C62.7665 64.4668 62.5741 64.2504 62.1312 63.8133C61.1544 62.8484 60.223 62.0387 59.3287 61.3725C59.4629 61.2194 59.5803 61.0537 59.6691 60.8753C59.9471 60.4002 60.0898 59.8227 59.9048 59.1523C59.9048 59.1523 57.8296 59.7763 57.1763 61.0822C57.1594 61.1117 57.1436 61.1434 57.1277 61.174C57.1044 61.1434 57.0791 61.1139 57.0526 61.0843C56.7799 60.7359 56.3634 60.4424 55.7227 60.3326C55.7227 60.3326 55.3369 61.8708 56.0896 62.7597C43.2844 62.7639 43.2685 62.8136 42.8012 62.8178C42.8012 62.8178 39.633 62.8505 39.3402 62.8537C39.0473 62.8568 38.2957 62.974 37.7809 63.4322C36.9235 64.2398 37.006 65.1023 37.0102 65.456C37.0102 65.5046 37.0102 65.6059 37.0102 65.6059C37.0979 73.9629 37.0768 74.4517 37.0789 74.6723L37.0969 76.1134C37.0969 76.1134 37.0969 76.1556 37.099 76.2929C37.1011 76.4301 37.1646 76.7816 37.4172 77.0224C37.8612 77.4235 38.3359 77.3845 38.5304 77.3824C38.6847 77.3813 38.8697 77.3792 38.8697 77.3792H38.8972L38.874 75.348C38.8623 74.3451 38.8581 74.2226 38.8528 74.1023C38.8517 74.0769 38.8422 73.926 38.8137 70.9436H39.2809C39.3222 74.2163 39.337 74.514 39.338 74.6734L39.356 76.1144C39.356 76.1144 39.356 76.1567 39.3581 76.2939C39.3602 76.4312 39.4237 76.7827 39.6763 77.0234C40.1203 77.4246 40.595 77.3855 40.7895 77.3834C40.9438 77.3824 41.1288 77.3802 41.1288 77.3802H41.1563L41.1331 75.3491C41.1214 74.3461 41.1172 74.2237 41.1119 74.1033C41.1109 74.079 41.1024 73.9333 41.0749 71.1104C44.6967 71.1019 45.6333 71.0576 46.0731 71.0534L48.1166 71.0217C48.1166 71.0217 48.2064 71.0217 48.5003 71.0175C48.6177 71.0164 50.2637 70.9436 50.2637 70.9436C50.3049 74.2163 50.3197 74.514 50.3207 74.6734L50.3387 76.1144C50.3387 76.1144 50.3387 76.1567 50.3408 76.2939C50.3429 76.4312 50.4064 76.7827 50.659 77.0234C51.103 77.4246 51.5777 77.3855 51.7722 77.3834C51.9265 77.3824 52.1115 77.3802 52.1115 77.3802H52.139L52.1158 75.3491C52.1041 74.3461 52.0999 74.2237 52.0946 74.1033C52.0936 74.078 52.0841 73.927 52.0555 70.9446H52.5228C52.564 74.2173 52.5788 74.515 52.5799 74.6745L52.5978 76.1155C52.5978 76.1155 52.5978 76.1577 52.5999 76.295C52.601 76.4322 52.6655 76.7838 52.9181 77.0245C53.3621 77.4256 53.8368 77.3866 54.0313 77.3845C54.1857 77.3834 54.3707 77.3813 54.3707 77.3813H54.3981L54.3749 75.3501C54.3633 74.3472 54.359 74.2247 54.3537 74.1044C54.3527 74.078 54.3421 73.9133 54.3104 70.4769C55.506 70.061 56.8634 68.9842 57.3201 66.3069C58.2821 66.7524 59.6236 66.9984 61.2188 66.2911L61.1491 66.3808L61.388 66.537C62.0339 66.9593 62.5857 66.5455 62.7982 66.2879L62.8194 66.2615L62.923 66.1264L63.0414 65.9722L63.0625 65.9448C63.2052 65.7432 63.3733 65.3525 63.1873 64.9915" fill="#95C413"/>
<path d="M34.9841 68.5508C34.9503 68.9858 35.0539 69.4545 35.4313 69.8916C35.4313 69.8916 36.7337 68.7957 36.7443 67.6345C36.777 67.2006 36.6745 66.7329 36.2971 66.2969C36.2971 66.2969 34.9968 67.3906 34.9841 68.5508Z" fill="#95C413"/>
<path d="M43.5481 71.0195H41.9825V71.4429C41.9825 72.3381 42.8208 72.5545 43.251 72.5683L43.2954 72.5693H43.5164H43.768H43.8135C44.2437 72.5545 45.082 72.3381 45.082 71.4429V71.0195H43.5471H43.5481Z" fill="#95C413"/>
</g>
<mask id="mask6_6360_2829" style="mask-type:luminance" maskUnits="userSpaceOnUse" x="79" y="63" width="30" height="15">
<path d="M79.467 63.1641H108.098V77.4235H79.467V63.1641Z" fill="white"/>
</mask>
<g mask="url(#mask6_6360_2829)">
<path d="M108.064 68.8317C108.097 69.2529 107.998 69.7068 107.632 70.1302C107.632 70.1302 106.371 69.0692 106.361 67.9438C106.33 67.5226 106.429 67.0707 106.794 66.6484C106.794 66.6484 108.054 67.7084 108.066 68.8317" fill="#95C413"/>
<path d="M99.7731 71.2198H101.289V71.6294C101.289 72.4972 100.476 72.7062 100.06 72.7189L100.016 72.72H99.8017H99.5585H99.5152C99.0987 72.7052 98.2857 72.4962 98.2857 71.6284V71.2188H99.772L99.7731 71.2198Z" fill="#95C413"/>
<path d="M89.7715 63.2227C100.025 63.2311 100.065 63.2733 100.489 63.2776C100.489 63.2776 103.558 63.3092 103.841 63.3124C104.124 63.3156 104.853 63.4285 105.352 63.873C106.183 64.6553 106.101 65.4903 106.098 65.8334C106.098 65.8809 106.098 65.9791 106.098 65.9791C106.013 74.0732 106.034 74.5462 106.031 74.7605L106.015 76.1562C106.015 76.1562 106.014 76.1973 106.012 76.3304C106.011 76.4634 105.949 76.8033 105.705 77.0377C105.275 77.4262 104.816 77.3882 104.626 77.3871C104.476 77.385 104.298 77.3839 104.298 77.3839H104.271L104.295 75.4161C104.306 74.4448 104.31 74.3255 104.316 74.2094C104.317 74.1851 104.325 74.0395 104.353 71.15H103.9C103.861 74.3192 103.846 74.6074 103.844 74.7616L103.827 76.1572C103.827 76.1572 103.827 76.1984 103.825 76.3314C103.824 76.4644 103.762 76.8044 103.518 77.0387C103.087 77.4272 102.628 77.3892 102.439 77.3882C102.289 77.386 102.11 77.385 102.11 77.385H102.084L102.107 75.4172C102.119 74.4459 102.123 74.3266 102.128 74.2105C102.129 74.1873 102.138 74.0458 102.164 71.3115C98.6568 71.3031 97.7497 71.2608 97.3237 71.2566L95.3447 71.226C95.3447 71.226 95.257 71.226 94.9737 71.2228C94.8606 71.2218 93.2664 71.151 93.2664 71.151C93.2262 74.3203 93.2125 74.6085 93.2104 74.7626L93.1934 76.1583C93.1934 76.1583 93.1934 76.1994 93.1913 76.3325C93.1903 76.4655 93.1268 76.8054 92.8837 77.0398C92.4534 77.4283 91.9946 77.3903 91.8054 77.3892C91.6553 77.3871 91.4766 77.3861 91.4766 77.3861H91.4502L91.4735 75.4182C91.4851 74.447 91.4893 74.3277 91.4946 74.2115C91.4957 74.1873 91.5041 74.0416 91.5316 71.1521H91.0791C91.04 74.3213 91.0252 74.6095 91.0231 74.7637L91.0062 76.1593C91.0062 76.1593 91.0062 76.2005 91.0041 76.3335C91.003 76.4665 90.9407 76.8065 90.6965 77.0408C90.2662 77.4293 89.8074 77.3913 89.6182 77.3903C89.4681 77.3882 89.2894 77.3871 89.2894 77.3871H89.263L89.2862 75.4193C89.2979 74.448 89.3021 74.3287 89.3074 74.2126C89.3084 74.1873 89.3179 74.0278 89.3486 70.6992C88.19 70.2959 86.8759 69.2529 86.433 66.66C86.0841 66.8216 85.6835 66.9567 85.2374 67.0253L89.7736 63.2279L89.7715 63.2227Z" fill="#95C413"/>
<path d="M80.5993 66.5592C81.2473 66.441 82.056 66.3967 82.6966 66.6954C82.7125 66.7018 82.7273 66.7081 82.7432 66.7155C82.758 66.7218 82.7738 66.7292 82.7886 66.7355C82.7886 66.7165 82.7886 66.6986 82.7886 66.6796C82.7886 66.6606 82.7897 66.6416 82.7907 66.6226C82.7886 66.4083 82.8235 66.1834 82.9102 65.9533C82.9968 65.7231 83.1364 65.4877 83.3457 65.2533C83.3457 65.2533 83.6502 65.4866 83.9515 65.8614C84.2517 66.2362 84.5487 66.7514 84.5318 67.3151C86.7444 65.5626 88.4549 64.2103 89.7816 63.1641L89.77 63.2221L102.358 63.3024L102.217 63.4143C103.188 64.6674 103.716 65.3536 104.012 65.74C104.309 66.1274 104.374 66.2161 104.422 66.2774L104.849 66.8295L105.277 67.3816C105.277 67.3816 105.284 67.3901 105.299 67.4112C105.316 67.4323 105.343 67.4671 105.383 67.5189C105.424 67.5717 105.484 67.6741 105.53 67.805C105.575 67.9359 105.605 68.0963 105.582 68.2631C105.534 68.5492 105.415 68.7562 105.289 68.905C105.163 69.0549 105.03 69.1478 104.955 69.2059C104.896 69.2513 104.831 69.302 104.78 69.341C104.731 69.3801 104.695 69.4075 104.695 69.4075L104.684 69.416L104.674 69.4244L104.07 68.6474L103.466 67.8704C103.168 67.4861 103.002 67.2708 102.901 67.1388C102.8 67.0068 102.765 66.9593 102.731 66.9118C102.723 66.9023 102.7 66.8685 102.467 66.5677C102.235 66.2668 101.795 65.6988 100.954 64.6199C99.5772 65.7052 98.705 66.3808 98.1341 66.8179C97.5633 67.2539 97.2958 67.4524 97.1277 67.5833L96.3433 68.185L95.5589 68.7868C95.5589 68.7868 95.542 68.8005 95.4966 68.8353C95.4511 68.8702 95.3782 68.9272 95.2661 69.0148C95.2217 69.0497 94.876 69.3009 94.5419 69.5427C94.2079 69.7855 93.8844 70.0188 93.8844 70.0188C94.2671 70.5139 94.5811 70.9193 94.8401 71.254H92.6486C92.6084 71.2022 92.5672 71.1505 92.526 71.0967L92.3484 71.2371L92.3262 71.254H89.3366L89.326 72.3139C89.0448 72.3192 88.7477 72.2949 88.4348 72.2294C87.625 72.0605 86.7148 71.6214 85.7349 70.743C85.5044 71.2012 85.1725 71.6784 84.6925 72.0943C84.2126 72.5103 83.5868 72.8639 82.7675 73.0751L82.8214 73.0888L82.8742 73.1025L82.8309 73.2334L82.7875 73.3643C82.6702 73.7191 82.444 73.9006 82.2082 73.9851C81.9725 74.0695 81.7262 74.0569 81.5676 74.0231V74.0242L81.5517 74.0199L81.5359 74.0157L81.4555 73.9956L81.3752 73.9756L81.2832 73.9524L81.1912 73.9291L81.1754 73.9249L81.1595 73.9207V73.9196C81.0443 73.8869 80.8963 73.8215 80.7673 73.7159C80.6384 73.6103 80.5284 73.4646 80.4904 73.2725C80.484 73.2725 80.4766 73.2725 80.4703 73.2725C80.4639 73.2725 80.4565 73.2725 80.4502 73.2725C80.4724 72.9484 80.4872 72.7172 80.5062 72.4913C80.5252 72.2653 80.5474 72.0458 80.5834 71.747C80.6627 71.0872 80.7568 70.4643 80.8667 69.8752C80.9756 69.2861 81.0993 68.7319 81.2378 68.2104C81.1405 68.1924 81.0454 68.1702 80.9513 68.1417C80.8582 68.1132 80.7663 68.0795 80.6785 68.0383C80.4301 67.9422 80.1912 67.805 79.9819 67.616C79.7726 67.426 79.5928 67.1832 79.4607 66.8738C79.4607 66.8738 79.948 66.6806 80.5961 66.5613" fill="#95C413"/>
</g>
<path d="M163.862 84.3438C164.354 84.3438 164.754 84.7428 164.754 85.2348C164.754 85.7267 164.354 86.1258 163.862 86.1258H49.1529C48.6602 86.1258 48.2606 85.7267 48.2606 85.2348C48.2606 84.7428 48.6602 84.3438 49.1529 84.3438H163.862Z" fill="#95C413"/>
<path d="M158.412 91.8281C158.905 91.8281 159.305 92.2272 159.305 92.7191C159.305 93.2111 158.905 93.6102 158.412 93.6102H79.6582C79.1656 93.6102 78.766 93.2111 78.766 92.7191C78.766 92.2272 79.1656 91.8281 79.6582 91.8281H158.412Z" fill="#95C413"/>
<path d="M152.166 100.312C152.659 100.312 153.059 100.712 153.059 101.204C153.059 101.695 152.659 102.095 152.166 102.095H54.8085C54.3159 102.095 53.9163 101.695 53.9163 101.204C53.9163 100.712 54.3159 100.312 54.8085 100.312H152.166Z" fill="#95C413"/>
<path d="M146.252 108.617C146.745 108.617 147.145 109.016 147.145 109.508C147.145 110 146.745 110.399 146.252 110.399H53.9825C53.4898 110.399 53.0913 110 53.0913 109.508C53.0913 109.016 53.4909 108.617 53.9825 108.617H146.252Z" fill="#95C413"/>
<path d="M70.3382 91.8281C70.8309 91.8281 71.2305 92.2272 71.2305 92.7191C71.2305 93.2111 70.8309 93.6102 70.3382 93.6102H47.3866C46.8939 93.6102 46.4943 93.2111 46.4943 92.7191C46.4943 92.2272 46.8939 91.8281 47.3866 91.8281H70.3382Z" fill="#95C413"/>
<path d="M140.303 116.922C140.796 116.922 141.195 117.321 141.195 117.813C141.195 118.305 140.796 118.704 140.303 118.704H58.4578C57.9651 118.704 57.5655 118.305 57.5655 117.813C57.5655 117.321 57.9651 116.922 58.4578 116.922H140.303Z" fill="#95C413"/>
<path d="M134.065 125.23C134.557 125.23 134.957 125.63 134.957 126.121C134.957 126.613 134.557 127.013 134.065 127.013H63.2867C62.7941 127.013 62.3956 126.613 62.3956 126.121C62.3956 125.63 62.7952 125.23 63.2867 125.23H134.065Z" fill="#95C413"/>
<path d="M128.174 133.535C128.667 133.535 129.066 133.934 129.066 134.426C129.066 134.918 128.667 135.317 128.174 135.317H67.4084C66.9157 135.317 66.5161 134.918 66.5161 134.426C66.5161 133.934 66.9157 133.535 67.4084 133.535H128.174Z" fill="#95C413"/>
<path d="M121.811 141.84C122.304 141.84 122.703 142.239 122.703 142.731C122.703 143.223 122.304 143.622 121.811 143.622H73.2995C72.8069 143.622 72.4073 143.223 72.4073 142.731C72.4073 142.239 72.8069 141.84 73.2995 141.84H121.811Z" fill="#95C413"/>
<path d="M115.92 150.148C116.413 150.148 116.812 150.547 116.812 151.039C116.812 151.531 116.413 151.93 115.92 151.93H89.073C88.5803 151.93 88.1807 151.531 88.1807 151.039C88.1807 150.547 88.5803 150.148 89.073 150.148H115.92Z" fill="#95C413"/>
<path d="M168.979 78.1086C169.266 77.7096 169.823 77.6188 170.223 77.9059C170.622 78.1931 170.713 78.7495 170.426 79.1496L108.524 165.02C108.236 165.419 107.679 165.51 107.279 165.223C106.88 164.936 106.789 164.379 107.076 163.979L168.979 78.1086Z" fill="#95C413"/>
<path d="M175.553 78.3433C175.797 77.9168 176.342 77.7679 176.769 78.0118C177.196 78.2557 177.346 78.8004 177.101 79.2269L122.468 174.685C122.224 175.113 121.679 175.261 121.251 175.017C120.824 174.773 120.675 174.228 120.919 173.802L175.553 78.3433Z" fill="#95C413"/>
<path d="M182.461 78.5089C182.662 78.0591 183.188 77.8575 183.638 78.0581C184.089 78.2587 184.291 78.7844 184.091 79.2341L141.962 173.73C141.761 174.179 141.234 174.381 140.784 174.18C140.333 173.981 140.132 173.454 140.331 173.004L182.461 78.5089Z" fill="#95C413"/>
<path d="M188.326 78.6338C188.463 78.1619 188.959 77.8906 189.432 78.0278C189.904 78.1651 190.176 78.6602 190.039 79.1321L162.795 172.473C162.657 172.945 162.162 173.216 161.689 173.079C161.216 172.941 160.945 172.446 161.082 171.974L188.326 78.6338Z" fill="#95C413"/>
<path d="M194.973 79.049C195.063 78.5655 195.528 78.2457 196.012 78.3354C196.497 78.4251 196.817 78.8896 196.727 79.3732L180.083 169.056C179.994 169.539 179.528 169.859 179.044 169.769C178.56 169.68 178.24 169.215 178.33 168.732L194.974 79.049H194.973Z" fill="#95C413"/>
<path d="M195.02 79.0998C195.11 78.6163 195.575 78.2964 196.059 78.3862C196.543 78.4759 196.864 78.9404 196.774 79.4239L180.13 169.107C180.04 169.59 179.575 169.91 179.091 169.82C178.607 169.73 178.287 169.266 178.376 168.782L195.021 79.0998H195.02Z" fill="#95C413"/>
<path d="M200.814 79.172C200.836 78.6811 201.252 78.3 201.745 78.3211C202.237 78.3423 202.618 78.7582 202.597 79.2491L199.162 157.821C199.141 158.313 198.724 158.693 198.232 158.672C197.74 158.651 197.359 158.235 197.38 157.744L200.814 79.172Z" fill="#95C413"/>
<path d="M208.222 79.1709C208.196 78.68 208.574 78.2609 209.065 78.2356C209.557 78.2102 209.976 78.5871 210.003 79.078L213.511 145.916C213.536 146.407 213.158 146.826 212.667 146.851C212.175 146.877 211.756 146.5 211.73 146.009L208.223 79.1709H208.222Z" fill="#95C413"/>
<path d="M215.86 78.7911C215.77 78.3076 216.09 77.8431 216.574 77.7534C217.058 77.6636 217.524 77.9835 217.613 78.467L225.176 119.215C225.266 119.699 224.946 120.163 224.462 120.253C223.977 120.343 223.512 120.023 223.422 119.539L215.86 78.7911Z" fill="#95C413"/>
<path d="M224.37 125.744C224.28 125.261 224.6 124.796 225.084 124.706C225.569 124.617 226.034 124.937 226.124 125.42L227.571 133.22C227.661 133.703 227.34 134.168 226.856 134.257C226.372 134.347 225.907 134.027 225.817 133.544L224.37 125.744Z" fill="#95C413"/>
</g>
<defs>
<clipPath id="clip0_6360_2829">
<rect width="261.081" height="170.27" fill="white" transform="matrix(-1 0 0 1 261.539 4.86328)"/>
</clipPath>
</defs>
</svg>
