<svg width="24" height="24" viewBox="0 0 24 24" fill="none" xmlns="http://www.w3.org/2000/svg">
<g id="beet" clip-path="url(#clip0_6689_110563)">
<path id="Vector" d="M23.7744 5.23609C23.5392 4.84111 23.1766 4.56463 22.7943 4.46589C22.3925 4.32765 21.9808 4.23878 21.5594 4.19928C21.6182 3.72531 21.6378 3.25135 21.6084 2.79713C21.6084 2.34291 21.4417 1.88869 21.1281 1.56284C20.8145 1.22711 20.3832 1.0395 19.9225 1.02962L18.6288 1C18.4131 1 18.1779 1.02962 17.9623 1.11849C17.7467 1.19749 17.5604 1.32585 17.3938 1.48384C17.2272 1.64183 17.0998 1.82944 17.0018 2.04668C16.9136 2.25404 16.8645 2.48115 16.8547 2.70826C16.8351 3.89318 16.7567 4.58438 16.2863 5.25583C14.7671 4.21903 13.0715 3.62657 11.366 3.56732C8.96472 3.48833 6.60261 4.47576 4.75017 6.35189C2.03522 9.08707 1.46675 12.2765 3.00555 16.4731C3.48581 17.5197 3.63283 18.6652 3.46621 19.8007L2.38807 20.8869C2.38807 20.8869 2.29005 20.9758 2.22144 20.9955C2.10383 21.0449 1.95681 21.0449 1.83919 20.9955C1.78039 20.9659 1.72158 20.9363 1.67257 20.8869C1.29032 20.5018 0.672843 20.5018 0.290593 20.8869C-0.0916561 21.272 -0.0916561 21.8941 0.290593 22.2792C0.525824 22.5162 0.790458 22.6939 1.0845 22.8124C1.38834 22.9408 1.70198 23 2.02542 23C2.34886 23 2.6723 22.9408 2.96634 22.8124C3.27018 22.684 3.53481 22.5063 3.77004 22.2693L4.83838 21.193C5.96553 21.0153 7.11228 21.1733 8.21982 21.6867C9.69001 22.2298 11.0524 22.5063 12.307 22.5063C14.5318 22.5063 16.4529 21.6472 18.1877 19.8896C20.0402 18.0233 21.0203 15.6535 20.9517 13.2145C20.9027 11.7729 20.491 10.351 19.7559 9.01795C19.8833 8.97846 20.0108 8.92908 20.148 8.90934C20.589 8.85009 21.0399 8.89946 21.4515 9.05745C21.4809 9.06732 21.5201 9.0772 21.5496 9.08707C21.7652 9.14632 21.9906 9.15619 22.2258 9.1167C22.4513 9.08707 22.6669 9.00808 22.8629 8.88959C23.0589 8.77109 23.2256 8.61311 23.3628 8.43537C23.5 8.24776 23.598 8.04039 23.647 7.82316L23.9607 6.52962C24.0587 6.08528 23.9901 5.63106 23.7548 5.23609H23.7744ZM18.815 2.97487L19.6579 2.99461C19.6775 3.6167 19.6089 4.23878 19.4521 4.84111C19.4325 4.89048 19.4227 4.94973 19.4129 4.9991C19.3541 5.19659 19.2953 5.39408 19.2169 5.58169C19.011 6.1149 18.717 6.61849 18.3641 7.08258C18.2171 6.91472 18.0799 6.75673 17.9231 6.59874C17.8839 6.55925 17.8349 6.51975 17.7957 6.48025C18.619 5.37433 18.766 4.24865 18.8052 2.96499L18.815 2.97487ZM16.8057 18.4874C14.6397 20.6697 12.2775 21.0646 8.97452 19.8501C7.94539 19.3662 6.83784 19.1194 5.7205 19.1194C5.65189 19.1194 5.57348 19.1194 5.50487 19.1194C5.54408 17.9246 5.29904 16.7496 4.81878 15.693C3.57402 12.2962 3.97587 9.90664 6.14195 7.72442C7.63175 6.22352 9.42538 5.45332 11.317 5.52244C13.1695 5.58169 15.0317 6.4605 16.5509 7.99102C16.9332 8.37612 17.2664 8.77109 17.5604 9.18582C17.5604 9.18582 17.5604 9.19569 17.5604 9.20557C17.5604 9.20557 17.5702 9.20557 17.5702 9.21544C19.7069 12.2271 19.4717 15.8016 16.8057 18.4874ZM21.8142 7.09246C21.4711 6.99372 21.1183 6.94434 20.7655 6.9246C20.8635 6.71724 20.9615 6.51975 21.0497 6.31239C21.0693 6.26302 21.0791 6.20377 21.1085 6.14452C21.4025 6.1544 21.7064 6.1939 22.02 6.28276L21.824 7.09246H21.8142Z" fill="black"/>
</g>
<defs>
<clipPath id="clip0_6689_110563">
<rect width="24" height="24" fill="white" transform="translate(0.00390625)"/>
</clipPath>
</defs>
</svg>
