<svg width="14" height="14" viewBox="0 0 14 14" fill="none" xmlns="http://www.w3.org/2000/svg">
<g clip-path="url(#clip0_6627_10513)">
<path d="M13.8661 3.05308C13.7289 2.82268 13.5174 2.6614 13.2944 2.6038C13.06 2.52316 12.8199 2.47132 12.574 2.44828C12.6083 2.1718 12.6198 1.89532 12.6026 1.63036C12.6026 1.36539 12.5054 1.10043 12.3224 0.910353C12.1395 0.714512 11.8879 0.605071 11.6192 0.599311L10.8645 0.582031C10.7387 0.582031 10.6015 0.599311 10.4757 0.651152C10.3499 0.697232 10.2413 0.772112 10.1441 0.864272C10.0469 0.956433 9.97259 1.06587 9.91542 1.19259C9.86396 1.31355 9.83537 1.44603 9.82966 1.57852C9.81822 2.26972 9.77248 2.67292 9.49805 3.0646C8.61185 2.4598 7.62274 2.1142 6.62791 2.07964C5.22714 2.03356 3.84925 2.60956 2.76866 3.70396C1.18493 5.29949 0.853323 7.15998 1.75096 9.60799C2.03111 10.2186 2.11687 10.8867 2.01967 11.5491L1.39076 12.1827C1.39076 12.1827 1.33359 12.2346 1.29356 12.2461C1.22495 12.2749 1.13919 12.2749 1.07058 12.2461C1.03628 12.2288 1.00198 12.2115 0.973389 12.1827C0.75041 11.9581 0.390213 11.9581 0.167234 12.1827C-0.0557447 12.4074 -0.0557447 12.7702 0.167234 12.9949C0.304452 13.1331 0.458822 13.2368 0.630344 13.3059C0.807584 13.3808 0.990541 13.4154 1.17922 13.4154C1.36789 13.4154 1.55656 13.3808 1.72809 13.3059C1.90533 13.231 2.0597 13.1274 2.19691 12.9891L2.82011 12.3613C3.47761 12.2576 4.14655 12.3498 4.79262 12.6493C5.65023 12.9661 6.44495 13.1274 7.17678 13.1274C8.47463 13.1274 9.59524 12.6262 10.6072 11.601C11.6878 10.5123 12.2596 9.12991 12.2195 7.70718C12.1909 6.86622 11.9508 6.03677 11.522 5.25917C11.5963 5.23613 11.6707 5.20733 11.7507 5.19581C12.008 5.16125 12.271 5.19005 12.5111 5.28221C12.5283 5.28797 12.5511 5.29373 12.5683 5.29949C12.6941 5.33405 12.8256 5.33981 12.9628 5.31677C13.0943 5.29949 13.2201 5.25341 13.3344 5.18429C13.4488 5.11517 13.546 5.02301 13.626 4.91933C13.7061 4.80989 13.7632 4.68893 13.7918 4.56221L13.9748 3.80764C14.032 3.54844 13.9919 3.28348 13.8547 3.05308H13.8661ZM10.9731 1.73404L11.4648 1.74556C11.4763 2.10844 11.4362 2.47132 11.3448 2.82268C11.3333 2.85148 11.3276 2.88604 11.3219 2.91484C11.2876 3.03004 11.2533 3.14524 11.2076 3.25468C11.0875 3.56572 10.916 3.85948 10.7101 4.13021C10.6244 4.03229 10.5443 3.94013 10.4529 3.84797C10.43 3.82492 10.4014 3.80188 10.3785 3.77884C10.8588 3.13372 10.9445 2.47708 10.9674 1.72828L10.9731 1.73404ZM9.80107 10.783C8.53752 12.056 7.15962 12.2864 5.23286 11.5779C4.63253 11.2957 3.98646 11.1517 3.33468 11.1517C3.29466 11.1517 3.24892 11.1517 3.2089 11.1517C3.23177 10.4547 3.08883 9.76927 2.80868 9.15295C2.08257 7.1715 2.31698 5.77757 3.58053 4.50461C4.44957 3.62908 5.49586 3.1798 6.59932 3.22012C7.67991 3.25468 8.76622 3.76732 9.65242 4.66013C9.87539 4.88477 10.0698 5.11517 10.2413 5.35709C10.2413 5.35709 10.2413 5.36285 10.2413 5.36861C10.2413 5.36861 10.247 5.36861 10.247 5.37437C11.4934 7.13118 11.3562 9.21631 9.80107 10.783ZM12.7227 4.13597C12.5226 4.07837 12.3167 4.04957 12.1109 4.03805C12.1681 3.91709 12.2252 3.80188 12.2767 3.68092C12.2881 3.65212 12.2939 3.61756 12.311 3.583C12.4825 3.58876 12.6598 3.6118 12.8427 3.66364L12.7284 4.13597H12.7227Z" fill="#AF40C1"/>
</g>
<defs>
<clipPath id="clip0_6627_10513">
<rect width="14" height="14" fill="white"/>
</clipPath>
</defs>
</svg>
