<svg width="24" height="24" viewBox="0 0 24 24" fill="none" xmlns="http://www.w3.org/2000/svg">
<g id="CO2">
<path id="icon" fill-rule="evenodd" clip-rule="evenodd" d="M24.0039 11.388C24.0039 11.3831 24.0015 11.3782 23.999 11.3733C23.9966 11.3685 23.9941 11.3636 23.9941 11.3587L23.8474 10.4685L23.7789 10.537C23.2899 9.08935 22.2628 8.08185 20.7271 7.53408V7.34823C20.7564 5.92012 20.326 4.62896 19.475 3.48452C19.475 3.48452 19.4164 3.41605 19.387 3.3867C19.387 3.3867 18.8001 2.71177 18.311 2.32051C18.311 2.32051 18.2621 2.28138 18.2426 2.26182L17.9589 2.63352H17.9565L18.2426 2.25204C17.5774 1.75318 16.8242 1.38148 15.9928 1.19563L15.9146 1.55755L15.8852 1.66515L15.9928 1.18585C15.6886 1.11565 15.3657 1.07033 15.0788 1.03004C15.0059 1.01981 14.9353 1.00991 14.8679 1H14.8288H14.7897H14.3299C14.2468 1.00978 14.1662 1.01956 14.0855 1.02933L14.0854 1.02934C14.0047 1.03913 13.924 1.04891 13.8409 1.05869C11.3955 1.32279 9.28266 3.11282 8.60773 5.48974C8.60773 5.48974 8.58817 5.58755 8.56861 5.62668C7.61979 5.42126 6.67098 5.5093 5.78086 6.02772C4.84183 6.56571 4.26472 7.37758 3.97127 8.34595L3.91906 8.35245L3.91902 8.35245H3.91901C3.77799 8.36996 3.63009 8.38832 3.48219 8.41442C1.29112 8.87416 -0.0978564 10.7033 0.00974073 12.9237C0.048867 13.5986 0.25428 14.2149 0.586853 14.7822C0.586853 14.7822 0.586853 14.8018 0.596634 14.8018C0.997678 15.555 1.59435 15.9756 1.78998 16.0929C1.78998 16.0929 1.82911 16.1125 1.83889 16.1223H1.84867L1.85846 16.1321L1.8783 16.1425C2.26458 16.3447 2.69764 16.5553 3.14962 16.7092C3.31771 16.768 3.49303 16.798 3.64454 16.8238L3.64455 16.8238L3.71695 16.8363H3.78542V17.7167C3.22787 17.7362 2.75836 18.0199 2.54316 18.5481C2.44535 18.8024 2.416 19.0665 2.47469 19.3404C2.53338 19.6045 2.68989 19.8393 2.88552 20.0349C2.99328 20.1376 3.10133 20.2409 3.20972 20.3445L3.2151 20.3497L3.21554 20.3501L3.21573 20.3503L3.21585 20.3504L3.21591 20.3505C3.7352 20.8469 4.2623 21.3508 4.80271 21.8347C5.71239 22.6662 7.10137 22.7053 8.0404 21.8836C8.59941 21.3945 9.13376 20.8807 9.65814 20.3765L9.65816 20.3765L9.65818 20.3765L9.6582 20.3765C9.79445 20.2455 9.93003 20.1151 10.0652 19.986C10.4858 19.585 10.5445 19.047 10.3586 18.5579C10.2608 18.3036 10.1043 18.0884 9.87934 17.9417C9.66414 17.7949 9.40982 17.7265 9.1555 17.7167H9.12615V16.8657H19.1131C21.3531 16.8657 23.2116 15.4963 23.8181 13.3737C23.8865 13.1291 23.9452 12.8455 23.9843 12.6498V12.5911L23.9941 12.5325V11.4369L23.955 11.3391L24.0039 11.388ZM8.0404 21.8836L7.86433 21.688L7.90346 21.7271L8.0404 21.8836ZM1.86824 16.0832C1.83889 16.1125 1.83889 16.1223 1.83889 16.1223L1.86824 16.0832ZM8.60773 5.48974L9.07725 5.62668H9.0479L8.60773 5.48974ZM7.0329 20.6218L7.15028 20.7457V20.7294L7.0329 20.6022C7.36417 20.3004 7.68437 19.9931 8.00599 19.6843C8.11171 19.5828 8.21759 19.4812 8.32407 19.3796C8.12844 19.3698 7.90346 19.3209 7.71761 19.135C7.5122 18.9296 7.48285 18.6557 7.48285 18.4601V16.7385V15.0268C7.48285 14.9192 7.45351 14.8898 7.45351 14.8898C7.45351 14.8898 7.42416 14.8605 7.31657 14.8605C7.16096 14.8605 6.99712 14.8636 6.82904 14.8667L6.82891 14.8667C6.47929 14.8733 6.11138 14.8803 5.7613 14.8605C5.67326 14.8605 5.62436 14.8703 5.59501 14.88C5.56567 14.8898 5.5461 14.8996 5.5461 14.9094C5.52654 14.9289 5.48741 15.0072 5.48741 15.1637C5.49394 15.9078 5.49176 16.6519 5.48958 17.3932V17.3934V17.3936V17.3938V17.394V17.3942C5.4885 17.7634 5.48741 18.1318 5.48741 18.4992L5.48739 18.509C5.48634 18.6946 5.4545 18.9625 5.25266 19.1644C5.07659 19.3502 4.84183 19.3893 4.66576 19.3991C4.7522 19.4817 4.83826 19.5643 4.92417 19.6467L4.92452 19.6471L4.92455 19.6471L4.92458 19.6471L4.92461 19.6472C5.27601 19.9844 5.62483 20.3192 5.98627 20.6414C6.27972 20.9055 6.72967 20.9055 7.0329 20.6218ZM3.84411 19.1252L3.81477 19.1546L3.84411 19.1154V19.1252ZM22.3215 12.6498C22.0378 14.1269 20.7271 15.2322 19.1816 15.2224C16.9442 15.2093 14.7067 15.2137 12.4722 15.218H12.4715H12.4708H12.4701H12.4694H12.4687C11.3537 15.2202 10.2394 15.2224 9.12615 15.2224V14.8507C9.07725 14.0388 8.44145 13.2856 7.57089 13.2269C6.88618 13.178 6.1819 13.1683 5.48741 13.2172C4.99834 13.2465 4.56795 13.4519 4.2745 13.7943C3.98105 14.1366 3.82455 14.5768 3.82455 15.0463V15.1833C3.45285 15.1246 3.1105 14.9778 2.77792 14.7627C2.53338 14.567 2.34753 14.3714 2.21059 14.2149C2.14212 14.1366 2.09321 14.0682 2.06387 14.0193C2.04431 13.9997 2.03452 13.9801 2.03452 13.9703L2.03452 13.9703C2.02474 13.9508 2.01496 13.9312 2.00518 13.9214C2.00144 13.914 1.99771 13.9079 1.99452 13.9028C1.99072 13.8966 1.98769 13.8917 1.98636 13.8871L1.9954 13.8823C1.66282 13.2367 1.58457 12.5911 1.7802 11.9064C2.12256 10.7033 3.24744 9.93056 4.47013 10.0284C4.66576 10.0479 4.92008 10.0284 5.13528 9.85231C5.34069 9.68602 5.41894 9.45127 5.44829 9.2752L5.46436 9.19723C5.51459 8.95309 5.55254 8.76865 5.61457 8.60027L5.35047 8.49267L5.24288 8.44377L5.62436 8.60027C6.12322 7.37758 7.52198 6.84937 8.71533 7.43627C8.9403 7.54386 9.28266 7.66124 9.60545 7.47539C9.92824 7.29932 10.0163 6.95697 10.0456 6.70265C10.075 6.48745 10.1141 6.27226 10.1728 6.05707C10.6423 4.2377 12.2856 2.84871 14.1343 2.71177C15.2885 2.62374 16.3254 2.9074 17.2546 3.59211C17.2546 3.59211 17.2938 3.62146 17.3133 3.63124C17.4209 3.70949 17.7828 3.98338 18.1545 4.48223C18.9175 5.5093 19.2012 6.64396 19.0349 7.91556L19.0336 7.92786C19.0137 8.1154 18.9804 8.42994 19.1718 8.68831C19.2794 8.82525 19.4066 8.9035 19.524 8.94263C19.6315 8.98175 19.7587 9.0111 19.8663 9.03066C21.49 9.29476 22.6638 11.0163 22.3508 12.6498H22.3215ZM5.44829 9.2752L4.96899 9.17738H4.98855L5.44829 9.2752ZM23.554 11.476L23.9288 11.4105L23.9354 11.4076L23.554 11.476ZM1.90736 16.1027C1.90736 16.1027 1.9954 15.956 2.13234 15.731L1.90736 16.1027ZM14.2711 8.16989H14.2907H14.3005C15.7677 8.18945 16.9513 9.40237 16.9513 10.8892C16.9415 11.6032 16.6481 12.2977 16.1296 12.8063C15.621 13.3052 14.9558 13.5791 14.2711 13.5791H14.2418C12.7452 13.5595 11.5519 12.3368 11.5616 10.8598C11.5714 9.37302 12.7843 8.16989 14.2711 8.16989ZM15.7579 10.8696C15.7579 10.0284 15.0732 9.34368 14.2516 9.34368V9.35346C13.4201 9.36324 12.7452 10.0479 12.7452 10.8892C12.7452 11.7304 13.4104 12.3955 14.2516 12.3955C14.6526 12.3955 15.0341 12.2292 15.3178 11.9456C15.6014 11.6521 15.7579 11.2706 15.7579 10.8696ZM10.7103 12.0043C10.5538 12.1314 10.3679 12.2781 10.1918 12.3368C9.71255 12.4836 9.19412 12.3466 8.80286 11.9847C8.39203 11.6032 8.22575 11.0555 8.35291 10.537C8.47029 10.048 8.79308 9.66647 9.22347 9.48062C9.67342 9.28499 10.1821 9.3339 10.6418 9.58822C11.0526 9.82297 11.3558 9.65669 11.5026 9.43171C11.5906 9.29477 11.6199 9.14805 11.5808 9.00132C11.5515 8.88394 11.4732 8.72744 11.2483 8.58072C10.857 8.33618 10.3777 8.17967 10.0451 8.16989C8.69526 8.16989 7.62907 8.90351 7.25737 10.0773C6.90524 11.2022 7.32584 12.4151 8.304 13.0998C8.76373 13.4226 9.29194 13.5791 9.81036 13.5791C10.4559 13.5791 11.082 13.3346 11.5221 12.8455C11.7862 12.552 11.8058 12.2097 11.5515 11.9651C11.3852 11.7989 11.0917 11.6717 10.6907 12.0043H10.7103ZM18.8786 12.6694H18.9177V12.6987C19.3188 12.6987 19.5927 12.9237 19.6024 13.2759C19.6024 13.4324 19.5535 13.5791 19.4459 13.6867C19.3188 13.8138 19.1427 13.8823 18.9275 13.8823H18.3993H17.8711C17.8628 13.8817 17.8536 13.8812 17.8438 13.8806C17.6919 13.8713 17.3719 13.8517 17.2157 13.5302C17.0494 13.1976 17.2451 12.9237 17.3429 12.7966L17.4701 12.6205C17.695 12.3173 17.92 12.014 18.1352 11.701C18.2135 11.5934 18.2721 11.4858 18.3113 11.3782L18.2526 11.3293L18.2232 11.3782C17.9689 11.926 17.607 11.8673 17.4211 11.7793C17.2646 11.7108 17.157 11.6032 17.1081 11.4565C17.0494 11.2804 17.069 11.0652 17.1668 10.85C17.4309 10.2631 18.1156 9.97948 18.7221 10.224C19.0351 10.3414 19.2796 10.5859 19.4068 10.8892C19.5242 11.1728 19.5242 11.4761 19.4068 11.7597C19.3043 12.0113 19.1575 12.2362 19.0169 12.4514C19.0099 12.4622 19.0029 12.4729 18.996 12.4836C18.9569 12.552 18.9177 12.6107 18.8786 12.6694L18.8786 12.6694Z" fill="black"/>
</g>
</svg>
