<svg width="24" height="24" viewBox="0 0 24 24" fill="none" xmlns="http://www.w3.org/2000/svg">
<g id="cow" clip-path="url(#clip0_6689_110560)">
<path id="Union" fill-rule="evenodd" clip-rule="evenodd" d="M23.4235 7.44393C22.8822 6.77977 22.1872 6.27483 21.3574 5.94409C21.0217 5.80997 20.6734 5.71006 20.3361 5.61334C20.28 5.59731 20.2228 5.58075 20.1656 5.56419C20.378 4.67293 20.4336 3.73947 20.3356 2.71945C20.3336 2.69939 20.3319 2.67919 20.3301 2.65892L20.3251 2.60297L20.3251 2.60275C20.2925 2.22396 20.2521 1.7528 19.854 1.42639C19.6875 1.28927 19.5016 1.20756 19.3219 1.12859L19.3211 1.12824C19.2492 1.09671 19.1816 1.06679 19.1181 1.03473C19.0746 1.01282 19.0268 1.00107 18.9781 1.00107H18.8732C18.8553 1.00107 18.838 1.00267 18.8207 1.00534C18.1598 1.11969 17.7958 1.58081 17.5267 2.01682C17.1464 2.63342 16.7189 3.10523 16.2201 3.45949C16.1262 3.52574 16.1036 3.53216 15.9982 3.46911C15.096 2.93051 14.0789 2.61793 12.8887 2.51374C11.1588 2.36199 9.65654 2.62167 8.29642 3.30667C8.28751 3.31094 8.2786 3.31468 8.26968 3.31842L8.26967 3.31843C8.22246 3.33873 8.15165 3.36919 8.08609 3.42957C7.97174 3.53483 7.8747 3.592 7.66593 3.36652L7.49913 3.18698L7.4977 3.18545C7.14094 2.80228 6.77225 2.40631 6.47157 1.98422C6.21559 1.62462 5.8652 1.13251 5.21426 1.00588C5.19485 1.00214 5.17491 1 5.15498 1H5.05008C5.02805 1 5.00601 1.00214 4.98451 1.00695C4.23547 1.16938 3.79434 1.64546 3.70779 2.38283C3.59711 3.32965 3.60183 4.15785 3.72143 4.91445C3.75599 5.13199 3.80019 5.35004 3.84305 5.5615L3.84305 5.56153L3.84306 5.56156L3.84307 5.56158L3.84522 5.5722C2.83391 5.77311 1.95269 6.18721 1.22359 6.80542C0.931424 7.05334 0.682794 7.3157 0.48452 7.58499C0.0192573 8.2187 -0.145971 8.93042 0.0197818 9.58871C0.19078 10.2678 0.695908 10.8326 1.44232 11.1778C2.35711 11.601 3.36212 11.7281 4.60579 11.5791C4.88636 11.5452 5.16229 11.4867 5.42951 11.43L5.42957 11.43L5.43718 11.4284L5.46105 11.4233L5.48492 11.4182C5.54943 11.9066 5.6129 12.3955 5.67637 12.8844C5.84055 14.1491 6.01102 15.4577 6.19514 16.7428C6.2885 17.3941 6.38502 18.0679 6.03463 18.6701C5.96867 18.7836 5.93719 18.9004 5.90944 19.0034L5.90926 19.004L5.9038 19.0243L5.90379 19.0243C5.89787 19.0464 5.89196 19.0684 5.88514 19.09C5.56569 20.1362 5.6192 21.098 6.04407 21.9481C6.68191 23.2246 7.82224 23.9235 9.34182 23.9695C10.0846 23.9919 10.8347 23.9983 11.5779 23.9983C12.0778 23.9983 12.5745 23.9956 13.065 23.9924C13.4935 23.9898 13.9221 23.9876 14.3501 23.9866C14.5908 23.9866 14.8515 23.9668 15.171 23.9246C17.138 23.6665 18.4556 22.0208 18.3046 20.0107C18.2547 19.3513 18.0239 18.7593 17.8 18.1876C17.7819 18.142 17.7642 18.0962 17.7466 18.0506L17.7318 18.0123C17.6924 17.9113 17.6846 17.8312 17.6898 17.7895C17.9012 16.1342 18.1231 14.4521 18.3381 12.8251L18.4037 12.3266C18.4415 12.0418 18.4808 11.7575 18.5212 11.4679L18.5246 11.4433L18.528 11.4188L18.5381 11.4212C18.5428 11.4223 18.5476 11.4234 18.5521 11.4246C20.0953 11.7885 21.3626 11.7137 22.5412 11.1901C23.3118 10.8476 23.8274 10.2678 23.9926 9.55825C24.1578 8.85027 23.9543 8.09848 23.4198 7.44286L23.4235 7.44393ZM4.69497 7.19761L5.19475 9.71804C4.92989 9.79657 4.65402 9.85106 4.3708 9.88044C3.67684 9.95204 2.86591 9.97449 2.11373 9.59191C2.00882 9.53848 1.91283 9.47383 1.8373 9.40436C1.61752 9.20399 1.59286 9.05652 1.73554 8.79898C2.0319 8.26198 2.5087 7.87353 3.28029 7.53797C3.73034 7.34241 4.20557 7.22807 4.69497 7.19761ZM17.0955 9.33437C17.0903 9.36108 17.0882 9.38833 17.0892 9.41558L17.0667 9.57106L17.0493 9.69129C17.0142 9.93334 16.9812 10.1615 16.9507 10.3934L16.839 11.2435C16.5584 13.3787 16.2683 15.587 15.9924 17.7601C15.9599 18.0139 16.027 18.2688 16.0805 18.4382C16.144 18.6391 16.2169 18.8368 16.2877 19.028C16.4042 19.3422 16.5138 19.6393 16.5809 19.9439C16.806 20.9618 16.2594 21.8594 15.2518 22.1266C14.937 22.2099 14.5977 22.2559 14.2704 22.2591C12.723 22.2746 11.1819 22.2703 9.74677 22.2634C8.8902 22.2591 8.31426 22.0593 7.87837 21.6152C7.3874 21.1151 7.26099 20.5087 7.48077 19.7061C7.57414 19.3657 7.70842 19.0008 7.90407 18.5568C8.08502 18.1454 8.03207 17.7527 7.98539 17.4065L7.98538 17.4064L7.86211 16.4772L7.86149 16.4725L7.86087 16.4678C7.55233 14.1365 7.24379 11.8052 6.93473 9.47383C6.93001 9.43856 6.92267 9.40917 6.91427 9.37765C6.91206 9.36827 6.90934 9.35783 6.90609 9.34542L6.90168 9.32849L6.41177 6.91175C6.40075 6.85671 6.37558 6.80542 6.33886 6.76374C5.77131 6.11347 5.27405 5.2468 5.36794 3.39804C5.81118 3.99595 6.32679 4.57088 7.00502 4.98551C7.19647 5.10253 7.40419 5.18214 7.56417 5.23878C7.95862 5.37771 8.3216 5.32748 8.67409 5.08543C9.46299 4.54363 10.4297 4.2567 11.6304 4.20807C13.1788 4.14556 14.3601 4.42608 15.3483 5.08971C15.6814 5.31359 16.0123 5.36649 16.39 5.25588C16.9208 5.10093 17.4018 4.78942 17.8199 4.33043C18.1194 4.00129 18.4042 3.65932 18.6796 3.32591C18.7315 4.33417 18.5443 5.90669 17.6651 6.75198C17.5975 6.81664 17.5644 6.9064 17.5681 6.9967L17.0945 9.33437H17.0955ZM22.1053 9.46207C21.7487 9.72603 21.3054 9.86228 20.6686 9.90289C19.9941 9.94617 19.3825 9.88151 18.8076 9.70519L19.3043 7.19921C20.3146 7.25104 21.1732 7.62079 21.9228 8.32503C22.0429 8.43831 22.1583 8.58578 22.2554 8.75142C22.4342 9.05599 22.3933 9.24834 22.1053 9.46207ZM8.78155 9.29201C8.50722 9.29628 8.25177 9.40956 8.06241 9.61047C7.87568 9.8087 7.77654 10.0689 7.78336 10.342C7.79804 10.9019 8.25282 11.3508 8.80043 11.3508H8.81722C9.08578 11.3465 9.33808 11.2343 9.52796 11.035C9.71784 10.8357 9.82013 10.5749 9.81541 10.3019C9.80597 9.73657 9.34437 9.28346 8.78155 9.29254V9.29201ZM15.0135 9.29201H15.0182V9.29254C15.5768 9.29254 16.0327 9.75046 16.0358 10.3152C16.0374 10.5872 15.9325 10.8458 15.7405 11.043C15.5475 11.2412 15.2925 11.3508 15.0229 11.3518H15.0193C14.4633 11.3518 14.008 10.8923 14.0043 10.3265C14.0022 10.0524 14.1055 9.79374 14.2949 9.59871C14.4858 9.40208 14.7407 9.29308 15.0135 9.29201ZM15.3103 19.0311C15.0402 19.0311 14.7884 19.1358 14.6001 19.3271C14.4092 19.5205 14.3042 19.7813 14.3042 20.0618C14.3042 20.6426 14.7454 21.0989 15.3093 21.0995H15.3108C15.8668 21.0995 16.3206 20.6367 16.3227 20.0666C16.3248 19.4981 15.8726 19.0338 15.315 19.0311H15.3108H15.3103ZM7.9677 19.3448C8.15916 19.1471 8.4209 19.0327 8.68631 19.0311L8.68579 19.0322C8.95225 19.0327 9.20875 19.138 9.40388 19.3346C9.59848 19.5307 9.70549 19.7882 9.70653 20.0602C9.70706 20.3274 9.59848 20.5935 9.40807 20.7901C9.21714 20.9873 8.9575 21.1005 8.69523 21.1011H8.69313C8.14447 21.1011 7.67763 20.6293 7.67344 20.0698C7.67134 19.8 7.77572 19.543 7.9677 19.3448Z" fill="black"/>
</g>
<defs>
<clipPath id="clip0_6689_110560">
<rect width="24" height="24" fill="white" transform="translate(0.00390625)"/>
</clipPath>
</defs>
</svg>
