<svg width="16" height="16" viewBox="0 0 16 16" fill="none" xmlns="http://www.w3.org/2000/svg">
<g id="Icon" clip-path="url(#clip0_6627_10056)">
<path id="Union" fill-rule="evenodd" clip-rule="evenodd" d="M15.6131 4.96392C15.2522 4.52115 14.7888 4.18452 14.2356 3.96403C14.0118 3.87462 13.7796 3.80801 13.5548 3.74353L13.4411 3.71076C13.5828 3.11659 13.6198 2.49428 13.5544 1.81427L13.5508 1.77386L13.5474 1.73661L13.5474 1.73648C13.5258 1.48394 13.4988 1.16984 13.2334 0.952228C13.1224 0.860817 12.9984 0.806342 12.8787 0.753694L12.8781 0.75346C12.8302 0.732444 12.7851 0.712496 12.7428 0.691123C12.7138 0.676518 12.682 0.668681 12.6494 0.668681H12.5795C12.5676 0.668681 12.5561 0.66975 12.5445 0.671531C12.1039 0.747761 11.8612 1.05517 11.6818 1.34585C11.4283 1.75692 11.1433 2.07146 10.8108 2.30763C10.7482 2.3518 10.7331 2.35607 10.6628 2.31404C10.0614 1.95497 9.38333 1.74659 8.58988 1.67713C7.4366 1.57596 6.43509 1.74908 5.52835 2.20575C5.5224 2.2086 5.51646 2.21109 5.51051 2.21359C5.47904 2.22712 5.43183 2.24743 5.38812 2.28768C5.31189 2.35785 5.24719 2.39597 5.10802 2.24565L4.99682 2.12596L4.99586 2.12494L4.99586 2.12493L4.99586 2.12493C4.75802 1.86949 4.51223 1.60551 4.31177 1.32412C4.14112 1.08438 3.90753 0.75631 3.47357 0.671887C3.46063 0.669394 3.44734 0.667969 3.43405 0.667969H3.36411C3.34943 0.667969 3.33474 0.669394 3.3204 0.6726C2.82104 0.780889 2.52695 1.09828 2.46926 1.58985C2.39547 2.22107 2.39862 2.7732 2.47835 3.2776C2.50139 3.42263 2.53085 3.568 2.55943 3.70898L2.55944 3.709L2.56087 3.7161C1.88667 3.85004 1.29919 4.12611 0.813123 4.53825C0.618345 4.70353 0.452592 4.87843 0.320409 5.05796C0.010234 5.48044 -0.0999184 5.95491 0.0105837 6.39377C0.124583 6.84652 0.461334 7.22304 0.958944 7.45316C1.5688 7.73528 2.23881 7.82006 3.06792 7.72067C3.255 7.69809 3.43898 7.65907 3.61715 7.62129L3.62218 7.62022L3.65401 7.61345C3.69701 7.93896 3.73931 8.26481 3.78161 8.59067L3.78164 8.59091C3.8911 9.43407 4.00475 10.3064 4.12749 11.1631C4.18973 11.5974 4.25407 12.0465 4.02048 12.448C3.97651 12.5237 3.95553 12.6016 3.93702 12.6702L3.93691 12.6706L3.93326 12.6841C3.92931 12.6989 3.92537 12.7135 3.92082 12.728C3.70786 13.4255 3.74353 14.0666 4.02678 14.6334C4.452 15.4844 5.21223 15.9503 6.22528 15.9809C6.72044 15.9959 7.2205 16.0002 7.71601 16.0002C8.04926 16.0002 8.38042 15.9984 8.70738 15.9963C8.99308 15.9945 9.27877 15.9931 9.56412 15.9923C9.72463 15.9923 9.89842 15.9792 10.1114 15.951C11.4227 15.779 12.3011 14.6818 12.2004 13.3417C12.1672 12.9022 12.0134 12.5075 11.864 12.1263C11.852 12.096 11.8402 12.0655 11.8285 12.0351L11.8186 12.0095C11.7923 11.9422 11.7871 11.8887 11.7906 11.861C11.9315 10.7574 12.0794 9.63604 12.2228 8.55137L12.2665 8.21902C12.2917 8.02916 12.3179 7.83965 12.3449 7.64658L12.3471 7.63019L12.3494 7.61381L12.3574 7.61577L12.3655 7.61773C13.3943 7.86031 14.2391 7.81044 15.0249 7.46135C15.5386 7.23301 15.8823 6.84652 15.9925 6.37347C16.1026 5.90148 15.9669 5.40029 15.6106 4.96321L15.6131 4.96392ZM3.12737 4.79971L3.46056 6.48C3.28399 6.53235 3.10007 6.56868 2.91126 6.58826C2.44862 6.636 1.908 6.65096 1.40655 6.39591C1.33661 6.36029 1.27262 6.31719 1.22226 6.27088C1.07574 6.1373 1.0593 6.03898 1.15442 5.86729C1.352 5.50929 1.66986 5.25032 2.18426 5.02662C2.48429 4.89624 2.80111 4.82001 3.12737 4.79971ZM11.3944 6.22421C11.3909 6.24202 11.3895 6.26019 11.3902 6.27836L11.3636 6.46216C11.3402 6.62353 11.3182 6.77563 11.2979 6.93023L11.2234 7.49697C11.0363 8.92041 10.8429 10.3926 10.659 11.8414C10.6373 12.0106 10.6821 12.1805 10.7177 12.2934C10.7601 12.4273 10.8087 12.5591 10.8559 12.6867C10.9335 12.8961 11.0066 13.0942 11.0514 13.2972C11.2014 13.9758 10.837 14.5743 10.1652 14.7524C9.95542 14.8079 9.72917 14.8386 9.51097 14.8407C8.47938 14.851 7.45199 14.8482 6.49524 14.8436C5.92419 14.8407 5.54023 14.7075 5.24964 14.4115C4.92233 14.078 4.83806 13.6737 4.98458 13.1387C5.04682 12.9118 5.13634 12.6685 5.26678 12.3725C5.38741 12.0982 5.35211 11.8364 5.32099 11.6056L5.32098 11.6056L5.2388 10.9861L5.23796 10.9798L5.23785 10.9789L5.23774 10.9781L5.23763 10.9772C5.03205 9.42388 4.82648 7.87053 4.62055 6.31719C4.6174 6.29368 4.61251 6.27408 4.60691 6.25307C4.60544 6.24681 4.60362 6.23985 4.60145 6.23157L4.59852 6.22029L4.27191 4.60913C4.26456 4.57244 4.24778 4.53825 4.2233 4.51046C3.84494 4.07695 3.51343 3.49917 3.57603 2.26666C3.87151 2.66527 4.21526 3.04855 4.66741 3.32498C4.79504 3.40299 4.93352 3.45606 5.04018 3.49382C5.30314 3.58644 5.54513 3.55296 5.78012 3.39159C6.30606 3.03039 6.95054 2.8391 7.75098 2.80668C8.78326 2.76501 9.57077 2.95202 10.2296 3.39444C10.4516 3.54369 10.6723 3.57896 10.9241 3.50522C11.278 3.40192 11.5986 3.19425 11.8773 2.88826C12.077 2.66883 12.2669 2.44085 12.4505 2.21857C12.4851 2.89075 12.3602 3.93909 11.7742 4.50262C11.7291 4.54573 11.707 4.60557 11.7095 4.66577L11.3937 6.22421H11.3944ZM14.7343 6.30935C14.4965 6.48532 14.201 6.57615 13.7765 6.60323C13.3268 6.63208 12.919 6.58898 12.5358 6.47143L12.8669 4.80078C13.5404 4.83533 14.1129 5.08183 14.6126 5.55132C14.6927 5.62684 14.7696 5.72516 14.8343 5.83558C14.9535 6.03863 14.9263 6.16686 14.7343 6.30935ZM5.85176 6.19598C5.66887 6.19882 5.49857 6.27434 5.37234 6.40828C5.24785 6.54044 5.18175 6.71391 5.1863 6.89594C5.19609 7.26925 5.49927 7.56847 5.86435 7.56847H5.87554C6.05458 7.56562 6.22278 7.49082 6.34937 7.35795C6.47596 7.22508 6.54415 7.05125 6.541 6.86922C6.53471 6.49235 6.22698 6.19028 5.85176 6.19633V6.19598ZM10.0064 6.19598H10.0095V6.19633C10.382 6.19633 10.6858 6.50161 10.6879 6.87813C10.689 7.05944 10.619 7.23185 10.4911 7.36329C10.3624 7.49545 10.1924 7.56847 10.0127 7.56918H10.0102C9.63956 7.56918 9.33603 7.26284 9.33358 6.88561C9.33219 6.70287 9.40108 6.53046 9.52731 6.40044C9.6546 6.26936 9.82455 6.19669 10.0064 6.19598ZM10.2043 12.6887C10.0242 12.6887 9.85632 12.7585 9.73078 12.8861C9.6035 13.015 9.53356 13.1888 9.53356 13.3758C9.53356 13.7631 9.82765 14.0673 10.2036 14.0676H10.2046C10.5753 14.0676 10.8778 13.7591 10.8792 13.3791C10.8806 13 10.5791 12.6905 10.2074 12.6887H10.2046H10.2043ZM5.3092 12.8978C5.43683 12.766 5.61133 12.6898 5.78827 12.6887L5.78792 12.6894C5.96556 12.6898 6.13656 12.7599 6.26665 12.891C6.39638 13.0218 6.46772 13.1935 6.46842 13.3748C6.46877 13.5529 6.39638 13.7303 6.26944 13.8614C6.14216 13.9928 5.96906 14.0683 5.79422 14.0687H5.79282C5.42704 14.0687 5.11582 13.7541 5.11302 13.3812C5.11162 13.2013 5.18121 13.03 5.3092 12.8978Z" fill="#991B1B"/>
</g>
<defs>
<clipPath id="clip0_6627_10056">
<rect width="16" height="16" fill="white"/>
</clipPath>
</defs>
</svg>
