<svg width="24" height="24" viewBox="0 0 24 24" fill="none" xmlns="http://www.w3.org/2000/svg">
<g id="engrais protection" clip-path="url(#clip0_6689_110566)">
<path id="icon" fill-rule="evenodd" clip-rule="evenodd" d="M19.7939 24H19.8739V24.01C20.9139 24.01 21.7039 23.75 22.2339 23.22C22.7539 22.69 23.0039 21.93 23.0039 20.94C22.9639 16.9 22.9739 12.79 22.9839 8.81V4.06V4.05994C22.9839 3.76996 22.9839 3.47998 22.9539 3.2C22.8139 1.93 21.8339 1.03 20.5739 1.02C18.0439 1 15.5539 1 13.1639 1.02C11.7939 1.03 10.7739 2.03 10.7339 3.4V3.78H9.91391V3.62C9.91391 3.46105 9.91276 3.30552 9.91163 3.15227V3.15227V3.15226V3.15226V3.15225C9.90943 2.85237 9.90729 2.56118 9.91391 2.27C9.92391 1.88 9.82391 1.56 9.60391 1.34C9.37391 1.1 9.04391 1 8.60391 1C7.33391 1.02 6.06391 1.02 4.78391 1C4.34391 1 4.00391 1.11 3.77391 1.34C3.54391 1.57 3.44391 1.89 3.46391 2.33C3.49391 2.9 3.49391 3.41 3.46391 3.88C3.46116 3.89651 3.45613 3.91528 3.45134 3.93321C3.43983 3.97625 3.42963 4.01437 3.45535 4.00434C2.4712 4.50485 2.00391 5.34349 2.00391 6.55C2.01057 9.04333 2.00835 11.5367 2.00613 14.03C2.00502 15.2767 2.00391 16.5233 2.00391 17.77V21.22C2.00391 23.02 2.99391 23.98 4.86391 23.97H9.12391C12.6239 23.96 16.2439 23.95 19.7939 24ZM12.9339 3.16C13.0239 3.07 13.3939 3.05 13.8539 3.05V3.06H14.2239H14.3639H18.0839H20.1539C20.8639 3.06 20.9039 3.14 20.9039 3.76V10.19V12.18V15.39V21.11C20.9039 21.86 20.8839 21.92 20.0539 21.92H4.90391C4.10391 21.92 4.07391 21.85 4.07391 21.16V6.56C4.07391 5.94 4.12391 5.86 4.82391 5.86H11.3939C11.7939 5.86 12.2339 5.84 12.5339 5.53C12.8039 5.24 12.8339 4.83 12.8239 4.44L12.8232 4.41961C12.8127 4.09553 12.7871 3.30682 12.9339 3.16ZM7.77391 3.75H5.60391V3.09H7.77391V3.75ZM11.3039 20H11.3139C11.6739 20 11.9039 19.85 12.0339 19.72C12.3339 19.42 12.3639 18.98 12.3639 18.68V17.19V17L12.5739 16.96C16.1339 16.37 17.9639 14.17 18.0039 10.41C18.0039 9.97 17.9839 9.55 17.6939 9.27C17.4039 8.99 16.9939 8.97 16.5639 8.99C13.9539 9.09 12.1639 10.08 11.1039 12.03C10.1439 10.97 8.90391 10.47 7.22391 10.49C6.79391 10.5 6.17391 10.92 6.08391 11.39C5.65391 13.57 7.11391 16.05 9.20391 16.72C9.52391 16.82 9.85391 16.9 10.2039 16.97L10.2839 16.99V17.23V18.66C10.2839 19.02 10.3139 19.43 10.5939 19.72C10.7239 19.85 10.9439 20 11.3039 20ZM8.76391 14.02C8.44391 13.66 8.25391 13.22 8.20391 12.71C9.22391 12.86 9.91391 13.6 10.1439 14.79C9.57391 14.67 9.10391 14.4 8.76391 14.02ZM13.2239 12.56C13.8439 11.82 14.7739 11.35 15.8739 11.2C15.8239 12.2 15.4239 13.13 14.7539 13.81C14.1239 14.44 13.3039 14.8 12.4239 14.85C12.4039 13.99 12.6839 13.2 13.2239 12.56ZM14.2739 5.96C14.5939 6 14.9139 6 15.2339 6V5.99H15.8739H16.4939H17.1239C17.6739 6 18.2339 6.01 18.7939 5.96C19.1639 5.93 19.8739 5.61 19.9839 5.1C20.0439 4.84 19.9839 4.58 19.8239 4.39C19.6139 4.13 19.2139 3.98 18.7239 4H14.2939H14.2839C13.7439 4 13.3839 4.13 13.1739 4.4C13.0139 4.59 12.9739 4.85 13.0439 5.12C13.1739 5.6 13.8539 5.92 14.2739 5.96Z" fill="black"/>
</g>
<defs>
<clipPath id="clip0_6689_110566">
<rect width="24" height="24" fill="white" transform="translate(0.00390625)"/>
</clipPath>
</defs>
</svg>
