<svg width="23" height="24" viewBox="0 0 23 24" fill="none" xmlns="http://www.w3.org/2000/svg">
<g id="Group 890">
<path id="Vector (Stroke)" fill-rule="evenodd" clip-rule="evenodd" d="M16.967 0.0110613C17.2491 -0.01937 17.5344 0.0131792 17.8024 0.10636C18.0704 0.199542 18.3144 0.351033 18.5167 0.54991C18.7191 0.748788 18.8748 0.990094 18.9726 1.25642L22.7914 11.6619C22.8889 11.9282 22.9263 12.2133 22.9007 12.4957C22.875 12.7781 22.787 13.0512 22.643 13.2955C22.499 13.5398 22.3027 13.7491 22.0681 13.9084C21.8336 14.0676 21.5667 14.1729 21.2866 14.2166C21.2865 14.2166 21.2867 14.2165 21.2866 14.2166L20.1213 14.3985L11.6579 17.5043C11.4801 17.5693 11.2911 17.5985 11.1019 17.5903C10.9127 17.5821 10.727 17.5366 10.5554 17.4564C10.3838 17.3763 10.2298 17.263 10.1021 17.1231C9.97519 16.9841 9.87681 16.8215 9.81254 16.6446C9.81216 16.6435 9.81177 16.6425 9.81139 16.6414L9.48291 15.7461L8.58228 16.0767C8.40441 16.1417 8.21545 16.171 8.02624 16.1628C7.83704 16.1545 7.65132 16.1091 7.47975 16.0289C7.30818 15.9487 7.15413 15.8354 7.02645 15.6956C6.89953 15.5565 6.80115 15.3939 6.73688 15.217L6.40868 14.3229L5.95627 14.491C5.7784 14.556 5.58943 14.5852 5.40024 14.577C5.21103 14.5688 5.02531 14.5233 4.85374 14.4431C4.68217 14.3629 4.52812 14.2497 4.40044 14.1098C4.27354 13.9708 4.17516 13.8082 4.11089 13.6313L1.96496 7.78484C1.7899 7.30756 1.81147 6.78007 2.02505 6.31875C2.23864 5.85742 2.62668 5.49979 3.10386 5.32448L15.1652 0.897956L16.1711 0.282338C16.171 0.282399 16.1712 0.282277 16.1711 0.282338C16.413 0.134252 16.685 0.0414801 16.967 0.0110613ZM16.0851 2.58305C16.0313 2.61601 15.9743 2.64357 15.915 2.66533L3.7651 7.12435L5.74677 12.5233L6.64321 12.1903C6.88217 12.1015 7.14665 12.1116 7.37818 12.2182C7.60971 12.3249 7.78923 12.5194 7.87708 12.7587L8.37341 14.1108L9.72233 13.6156C9.96106 13.528 10.2248 13.5388 10.4556 13.6457C10.6863 13.7525 10.8652 13.9467 10.9528 14.1854L11.4492 15.5384L19.5496 12.5658C19.6087 12.5441 19.6698 12.5283 19.732 12.5186L20.9908 12.322L17.1724 1.91768L16.0851 2.58305ZM11.6134 15.986C11.614 15.9877 11.6146 15.9893 11.6152 15.9909L11.6134 15.986ZM8.53764 14.5583C8.53828 14.56 8.53891 14.5617 8.53952 14.5634L8.53764 14.5583ZM5.91168 12.9726C5.9123 12.9743 5.91291 12.9759 5.91352 12.9776L5.91168 12.9726Z" fill="black"/>
<path id="Vector (Stroke)_2" fill-rule="evenodd" clip-rule="evenodd" d="M0.242188 21.8025C0.242188 21.273 0.671433 20.8438 1.20093 20.8438C1.51878 20.8438 1.8236 20.97 2.04835 21.1948C2.2731 21.4195 2.39937 21.7243 2.39937 22.0422C2.39937 22.5717 1.97012 23.0009 1.44062 23.0009C1.11465 23.0009 0.82668 22.8383 0.653457 22.5897C0.404862 22.4164 0.242188 22.1285 0.242188 21.8025Z" fill="black"/>
<path id="Vector (Stroke)_3" fill-rule="evenodd" clip-rule="evenodd" d="M1.74982 22.5897C1.99732 22.4172 2.15977 22.1309 2.16108 21.8064C2.16321 21.2769 1.7357 20.8459 1.2062 20.8438C1.04814 20.8431 0.891509 20.8738 0.745354 20.934C0.599212 20.9942 0.466418 21.0827 0.354638 21.1945C0.242861 21.3063 0.15433 21.4391 0.0941388 21.5852C0.0339443 21.7314 0.0032798 21.888 0.00391595 22.046C0.00604674 22.5755 0.437016 23.0031 0.966513 23.0009C1.29109 22.9996 1.57735 22.8372 1.74982 22.5897Z" fill="black"/>
<path id="Vector (Stroke)_4" fill-rule="evenodd" clip-rule="evenodd" d="M1.74982 21.4943C1.57735 21.2468 1.29109 21.0843 0.966513 21.083C0.437016 21.0809 0.00604674 21.5084 0.00391595 22.0379C0.0032798 22.196 0.0339443 22.3526 0.0941388 22.4987C0.154338 22.6449 0.242876 22.7777 0.354638 22.8895C0.466395 23.0012 0.599183 23.0898 0.745354 23.15C0.891509 23.2102 1.04814 23.2408 1.2062 23.2402C1.7357 23.238 2.16321 22.8071 2.16108 22.2776C2.15977 21.953 1.99732 21.6667 1.74982 21.4943Z" fill="black"/>
<path id="Vector (Stroke)_5" fill-rule="evenodd" clip-rule="evenodd" d="M1.44062 21.083C1.97012 21.083 2.39937 21.5123 2.39937 22.0418C2.39937 22.3596 2.2731 22.6644 2.04835 22.8892C1.82362 23.1139 1.51879 23.2402 1.20093 23.2402C0.671433 23.2402 0.242188 22.8109 0.242188 22.2814C0.242188 21.9555 0.404862 21.6675 0.653457 21.4943C0.82668 21.2457 1.11465 21.083 1.44062 21.083Z" fill="black"/>
<path id="Vector (Stroke)_6" fill-rule="evenodd" clip-rule="evenodd" d="M3.12109 21.8025C3.12109 21.273 3.55034 20.8438 4.07984 20.8438C4.39768 20.8438 4.70251 20.97 4.92726 21.1948C5.15201 21.4195 5.27827 21.7243 5.27827 22.0422C5.27827 22.5717 4.84903 23.0009 4.31953 23.0009C3.99356 23.0009 3.70559 22.8383 3.53236 22.5897C3.28377 22.4164 3.12109 22.1285 3.12109 21.8025Z" fill="black"/>
<path id="Vector (Stroke)_7" fill-rule="evenodd" clip-rule="evenodd" d="M4.62482 22.5897C4.87232 22.4172 5.03477 22.1309 5.03608 21.8064C5.03821 21.2769 4.6107 20.8459 4.0812 20.8438C3.92314 20.8431 3.76651 20.8738 3.62035 20.934C3.47421 20.9942 3.34142 21.0827 3.22964 21.1945C3.11786 21.3063 3.02933 21.4391 2.96914 21.5852C2.90894 21.7314 2.87828 21.888 2.87892 22.046C2.88105 22.5755 3.31202 23.0031 3.84151 23.0009C4.16609 22.9996 4.45235 22.8372 4.62482 22.5897Z" fill="black"/>
<path id="Vector (Stroke)_8" fill-rule="evenodd" clip-rule="evenodd" d="M4.62482 21.4943C4.45235 21.2468 4.16609 21.0843 3.84151 21.083C3.31202 21.0809 2.88105 21.5084 2.87892 22.0379C2.87828 22.196 2.90894 22.3526 2.96914 22.4987C3.02934 22.6449 3.11788 22.7777 3.22964 22.8895C3.3414 23.0012 3.47418 23.0898 3.62035 23.15C3.76651 23.2102 3.92314 23.2408 4.0812 23.2402C4.6107 23.238 5.03821 22.8071 5.03608 22.2776C5.03477 21.953 4.87232 21.6667 4.62482 21.4943Z" fill="black"/>
<path id="Vector (Stroke)_9" fill-rule="evenodd" clip-rule="evenodd" d="M4.31953 21.083C4.84903 21.083 5.27827 21.5123 5.27827 22.0418C5.27827 22.3596 5.15201 22.6644 4.92726 22.8892C4.70252 23.1139 4.3977 23.2402 4.07984 23.2402C3.55034 23.2402 3.12109 22.8109 3.12109 22.2814C3.12109 21.9555 3.28377 21.6675 3.53236 21.4943C3.70559 21.2457 3.99356 21.083 4.31953 21.083Z" fill="black"/>
<path id="Vector (Stroke)_10" fill-rule="evenodd" clip-rule="evenodd" d="M5.99609 21.8025C5.99609 21.273 6.42534 20.8438 6.95484 20.8438C7.27268 20.8438 7.57751 20.97 7.80226 21.1948C8.02701 21.4195 8.15327 21.7243 8.15327 22.0422C8.15327 22.5717 7.72403 23.0009 7.19453 23.0009C6.86856 23.0009 6.58059 22.8383 6.40736 22.5897C6.15877 22.4164 5.99609 22.1285 5.99609 21.8025Z" fill="black"/>
<path id="Vector (Stroke)_11" fill-rule="evenodd" clip-rule="evenodd" d="M7.50372 22.5897C7.75123 22.4172 7.91368 22.1309 7.91499 21.8064C7.91712 21.2769 7.4896 20.8459 6.96011 20.8438C6.80204 20.8431 6.64542 20.8738 6.49926 20.934C6.35312 20.9942 6.22032 21.0827 6.10854 21.1945C5.99677 21.3063 5.90824 21.4391 5.84804 21.5852C5.78785 21.7314 5.75719 21.888 5.75782 22.046C5.75995 22.5755 6.19092 23.0031 6.72042 23.0009C7.045 22.9996 7.33126 22.8372 7.50372 22.5897Z" fill="black"/>
<path id="Vector (Stroke)_12" fill-rule="evenodd" clip-rule="evenodd" d="M7.50372 21.4943C7.33126 21.2468 7.045 21.0843 6.72042 21.083C6.19092 21.0809 5.75995 21.5084 5.75782 22.0379C5.75719 22.196 5.78785 22.3526 5.84804 22.4987C5.90824 22.6449 5.99678 22.7777 6.10854 22.8895C6.2203 23.0012 6.35309 23.0898 6.49926 23.15C6.64542 23.2102 6.80204 23.2408 6.96011 23.2402C7.4896 23.238 7.91712 22.8071 7.91499 22.2776C7.91368 21.953 7.75123 21.6667 7.50372 21.4943Z" fill="black"/>
<path id="Vector (Stroke)_13" fill-rule="evenodd" clip-rule="evenodd" d="M7.19453 21.083C7.72403 21.083 8.15327 21.5123 8.15327 22.0418C8.15327 22.3596 8.02701 22.6644 7.80226 22.8892C7.57752 23.1139 7.2727 23.2402 6.95484 23.2402C6.42534 23.2402 5.99609 22.8109 5.99609 22.2814C5.99609 21.9555 6.15877 21.6675 6.40736 21.4943C6.58059 21.2457 6.86856 21.083 7.19453 21.083Z" fill="black"/>
<path id="Vector (Stroke)_14" fill-rule="evenodd" clip-rule="evenodd" d="M2.16016 19.405C2.16016 18.8755 2.5894 18.4463 3.1189 18.4463C3.43674 18.4463 3.74157 18.5726 3.96632 18.7973C4.19107 19.0221 4.31734 19.3269 4.31734 19.6447C4.31734 20.1742 3.88809 20.6035 3.35859 20.6035C3.03262 20.6035 2.74465 20.4408 2.57143 20.1922C2.32283 20.019 2.16016 19.731 2.16016 19.405Z" fill="black"/>
<path id="Vector (Stroke)_15" fill-rule="evenodd" clip-rule="evenodd" d="M3.66778 20.1922C3.91529 20.0197 4.07774 19.7335 4.07905 19.4089C4.08118 18.8794 3.65366 18.4484 3.12417 18.4463C2.9661 18.4457 2.80948 18.4763 2.66332 18.5365C2.51718 18.5967 2.38439 18.6852 2.27261 18.797C2.16083 18.9088 2.0723 19.0416 2.01211 19.1877C1.95191 19.3339 1.92125 19.4905 1.92188 19.6486C1.92402 20.1781 2.35498 20.6056 2.88448 20.6035C3.20906 20.6022 3.49532 20.4397 3.66778 20.1922Z" fill="black"/>
<path id="Vector (Stroke)_16" fill-rule="evenodd" clip-rule="evenodd" d="M3.66778 19.0978C3.49532 18.8503 3.20906 18.6878 2.88448 18.6865C2.35498 18.6844 1.92402 19.1119 1.92188 19.6414C1.92125 19.7995 1.95191 19.9561 2.01211 20.1023C2.07231 20.2484 2.16085 20.3812 2.27261 20.493C2.38436 20.6047 2.51715 20.6933 2.66332 20.7535C2.80948 20.8137 2.9661 20.8443 3.12417 20.8437C3.65366 20.8416 4.08118 20.4106 4.07905 19.8811C4.07774 19.5565 3.91529 19.2703 3.66778 19.0978Z" fill="black"/>
<path id="Vector (Stroke)_17" fill-rule="evenodd" clip-rule="evenodd" d="M3.35859 18.6865C3.88809 18.6865 4.31734 19.1158 4.31734 19.6453C4.31734 19.9631 4.19107 20.2679 3.96632 20.4927C3.74158 20.7174 3.43676 20.8437 3.1189 20.8437C2.5894 20.8437 2.16016 20.4145 2.16016 19.885C2.16016 19.559 2.32283 19.271 2.57143 19.0978C2.74465 18.8492 3.03262 18.6865 3.35859 18.6865Z" fill="black"/>
<path id="Vector (Stroke)_18" fill-rule="evenodd" clip-rule="evenodd" d="M5.03906 19.405C5.03906 18.8755 5.46831 18.4463 5.99781 18.4463C6.31565 18.4463 6.62048 18.5726 6.84523 18.7973C7.06998 19.0221 7.19624 19.3269 7.19624 19.6447C7.19624 20.1742 6.767 20.6035 6.2375 20.6035C5.91153 20.6035 5.62356 20.4408 5.45033 20.1922C5.20174 20.019 5.03906 19.731 5.03906 19.405Z" fill="black"/>
<path id="Vector (Stroke)_19" fill-rule="evenodd" clip-rule="evenodd" d="M6.54278 20.1922C6.79029 20.0197 6.95274 19.7335 6.95405 19.4089C6.95618 18.8794 6.52866 18.4484 5.99917 18.4463C5.8411 18.4457 5.68448 18.4763 5.53832 18.5365C5.39218 18.5967 5.25939 18.6852 5.14761 18.797C5.03583 18.9088 4.9473 19.0416 4.88711 19.1877C4.82691 19.3339 4.79625 19.4905 4.79688 19.6486C4.79902 20.1781 5.22998 20.6056 5.75948 20.6035C6.08406 20.6022 6.37032 20.4397 6.54278 20.1922Z" fill="black"/>
<path id="Vector (Stroke)_20" fill-rule="evenodd" clip-rule="evenodd" d="M6.54278 19.0978C6.37032 18.8503 6.08406 18.6878 5.75948 18.6865C5.22998 18.6844 4.79902 19.1119 4.79688 19.6414C4.79625 19.7995 4.82691 19.9561 4.88711 20.1023C4.94731 20.2484 5.03585 20.3812 5.14761 20.493C5.25936 20.6047 5.39215 20.6933 5.53832 20.7535C5.68448 20.8137 5.8411 20.8443 5.99917 20.8437C6.52866 20.8416 6.95618 20.4106 6.95405 19.8811C6.95274 19.5565 6.79029 19.2703 6.54278 19.0978Z" fill="black"/>
<path id="Vector (Stroke)_21" fill-rule="evenodd" clip-rule="evenodd" d="M6.2375 18.6865C6.767 18.6865 7.19624 19.1158 7.19624 19.6453C7.19624 19.9631 7.06998 20.2679 6.84523 20.4927C6.62049 20.7174 6.31567 20.8437 5.99781 20.8437C5.46831 20.8437 5.03906 20.4145 5.03906 19.885C5.03906 19.559 5.20174 19.271 5.45033 19.0978C5.62356 18.8492 5.91153 18.6865 6.2375 18.6865Z" fill="black"/>
<path id="Vector (Stroke)_22" fill-rule="evenodd" clip-rule="evenodd" d="M4.07812 17.0086C4.07812 16.479 4.50737 16.0498 5.03687 16.0498C5.35471 16.0498 5.65954 16.1761 5.88429 16.4008C6.10904 16.6256 6.2353 16.9304 6.2353 17.2482C6.2353 17.7777 5.80606 18.207 5.27656 18.207C4.95059 18.207 4.66262 18.0443 4.48939 17.7957C4.2408 17.6225 4.07812 17.3345 4.07812 17.0086Z" fill="black"/>
<path id="Vector (Stroke)_23" fill-rule="evenodd" clip-rule="evenodd" d="M5.58575 17.7957C5.83326 17.6233 5.99571 17.337 5.99702 17.0124C5.99915 16.4829 5.57163 16.0519 5.04214 16.0498C4.88407 16.0492 4.72745 16.0798 4.58129 16.14C4.43515 16.2002 4.30236 16.2888 4.19058 16.4005C4.0788 16.5123 3.99027 16.6451 3.93008 16.7913C3.86988 16.9374 3.83922 17.094 3.83985 17.2521C3.84198 17.7816 4.27295 18.2091 4.80245 18.207C5.12703 18.2057 5.41329 18.0432 5.58575 17.7957Z" fill="black"/>
<path id="Vector (Stroke)_24" fill-rule="evenodd" clip-rule="evenodd" d="M5.58575 16.7003C5.41329 16.4528 5.12703 16.2904 4.80245 16.2891C4.27295 16.2869 3.84198 16.7145 3.83985 17.244C3.83922 17.402 3.86988 17.5586 3.93008 17.7048C3.99028 17.851 4.07882 17.9837 4.19058 18.0955C4.30233 18.2073 4.43512 18.2958 4.58129 18.356C4.72745 18.4162 4.88407 18.4469 5.04214 18.4462C5.57163 18.4441 5.99915 18.0131 5.99702 17.4836C5.99571 17.1591 5.83326 16.8728 5.58575 16.7003Z" fill="black"/>
<path id="Vector (Stroke)_25" fill-rule="evenodd" clip-rule="evenodd" d="M5.27656 16.2891C5.80606 16.2891 6.2353 16.7183 6.2353 17.2478C6.2353 17.5657 6.10904 17.8705 5.88429 18.0952C5.65955 18.32 5.35473 18.4462 5.03687 18.4462C4.50737 18.4462 4.07812 18.017 4.07812 17.4875C4.07812 17.1615 4.2408 16.8736 4.48939 16.7003C4.66262 16.4517 4.95059 16.2891 5.27656 16.2891Z" fill="black"/>
<path id="Vector (Stroke)_26" fill-rule="evenodd" clip-rule="evenodd" d="M15.5467 6.35845C14.6099 6.72361 13.6203 6.9413 12.6132 7.00208C12.5998 7.00289 12.5864 7.00342 12.5731 7.00366C12.0843 7.01267 11.6186 7.21316 11.2761 7.56201C10.9336 7.91086 10.7417 8.3802 10.7417 8.86907C10.7417 9.35793 10.9336 9.82727 11.2761 10.1761C11.6165 10.5229 12.0788 10.7231 12.5644 10.7343C13.6177 10.7305 14.3274 10.0711 14.843 8.94963C15.2235 8.12196 15.433 7.161 15.5467 6.35845ZM15.5109 4.2787C15.7403 4.17245 15.9937 4.12854 16.2454 4.1514C16.4972 4.17426 16.7385 4.26309 16.945 4.40891C17.1515 4.55475 17.3159 4.75243 17.4216 4.98205C17.5265 5.20974 17.57 5.46085 17.5479 5.71048C17.469 6.66565 17.2462 8.3128 16.5852 9.75061C15.9194 11.1987 14.6889 12.6518 12.5554 12.6518L12.5377 12.6516C11.5466 12.6334 10.6022 12.2268 9.90777 11.5194C9.2133 10.8121 8.82422 9.86037 8.82422 8.86907C8.82422 7.87777 9.2133 6.92607 9.90777 6.21869C10.5971 5.51657 11.5326 5.11082 12.5156 5.08697C13.5493 5.02217 14.5596 4.75128 15.4871 4.29015C15.495 4.28623 15.5029 4.28241 15.5109 4.2787Z" fill="black"/>
<path id="Vector (Stroke)_27" fill-rule="evenodd" clip-rule="evenodd" d="M14.3857 7.86505C14.5902 8.35346 14.36 8.91518 13.8716 9.1197C13.0831 9.44989 12.3827 9.95981 11.8263 10.6088C11.2698 11.2577 10.8728 12.0278 10.6668 12.8574C10.5392 13.3713 10.0192 13.6845 9.50531 13.5569C8.99141 13.4293 8.67823 12.9093 8.80582 12.3954C9.0838 11.2757 9.61965 10.2365 10.3706 9.36065C11.1216 8.48482 12.0668 7.79664 13.131 7.35102C13.6194 7.1465 14.1811 7.37664 14.3857 7.86505Z" fill="black"/>
</g>
</svg>
