<svg width="22" height="22" viewBox="0 0 22 22" fill="none" xmlns="http://www.w3.org/2000/svg">
<g id="Calque_1" clip-path="url(#clip0_6753_129611)">
<path id="Vector" d="M17.0079 0C17.2184 0.0322759 17.4297 0.0598346 17.6392 0.0978208C18.7229 0.293711 19.6578 0.777353 20.4389 1.5552C21.2497 2.36284 21.7333 3.34031 21.9178 4.46401C22.096 5.54922 21.9776 6.61184 21.6283 7.65138C21.2003 8.92553 20.491 10.0212 19.5171 10.9435C19.2326 11.2129 18.922 11.4547 18.6236 11.7092C18.6027 11.7271 18.5829 11.7459 18.5824 11.7464C18.9413 11.9538 19.3152 12.1387 19.6559 12.3723C20.4565 12.9218 21.0183 13.6721 21.4031 14.5587C21.7472 15.3514 21.9235 16.1834 21.9769 17.0429C21.9923 17.2902 22.0017 17.5382 22.0015 17.7858C22.001 18.2505 21.642 18.6095 21.2008 18.6294C20.7547 18.6495 20.3224 18.3084 20.3155 17.8036C20.3071 17.1944 20.2599 16.5911 20.1097 15.9987C19.9314 15.2951 19.634 14.651 19.1266 14.1224C18.6424 13.6179 18.0409 13.3232 17.3592 13.1874C17.3251 13.1807 17.2765 13.1959 17.2487 13.2185C16.8053 13.5777 16.2919 13.687 15.7377 13.6373C14.9716 13.5685 14.2735 13.2915 13.6079 12.9205C12.629 12.3751 11.771 11.6734 10.9869 10.8785C10.338 10.2205 9.75207 9.51146 9.27341 8.71847C8.9827 8.23706 8.72003 7.74175 8.56238 7.19777C8.55345 7.16699 8.54004 7.13744 8.53507 7.12429C8.4812 7.26183 8.4596 7.44431 8.35806 7.54983C8.11575 7.80183 8.16218 8.07345 8.23467 8.35698C8.36601 8.87016 8.60657 9.33469 8.88637 9.78034C9.55271 10.841 10.3851 11.7509 11.372 12.5208C11.9835 12.9978 12.6245 13.4278 13.3636 13.6808C13.6017 13.7622 13.8599 13.7885 14.1111 13.824C14.1737 13.833 14.2586 13.795 14.3105 13.7515C14.6724 13.4466 15.204 13.471 15.5046 13.8136C15.8281 14.1823 15.7993 14.7066 15.4376 15.0344C15.0783 15.3596 14.6511 15.5068 14.1722 15.5227C13.4274 15.5473 12.7499 15.31 12.0949 14.9882C11.1111 14.505 10.2493 13.8491 9.45788 13.0976C8.49908 12.1869 7.66317 11.1791 7.06013 9.99337C6.76867 9.4201 6.542 8.82448 6.49061 8.17549C6.44195 7.56125 6.56112 6.99593 7.00601 6.5391C7.41639 6.11777 8.01248 6.15998 8.37196 6.62699C8.37892 6.63593 8.39058 6.64114 8.39083 6.64139C8.38289 6.38517 8.35756 6.12324 8.37047 5.86329C8.39331 5.39901 8.55866 4.98688 8.89133 4.6522C9.05767 4.48486 9.25355 4.38605 9.4971 4.38505C9.54427 4.38505 9.60733 4.33788 9.63588 4.29443C10.0502 3.66605 10.4921 3.05926 11.0105 2.51082C11.5738 1.91495 12.2104 1.41443 12.9212 1.00577C13.6722 0.574014 14.4721 0.275587 15.3229 0.116193C15.5456 0.0744829 15.7722 0.0543725 15.9972 0.0230897C16.0282 0.018869 16.0585 0.00794484 16.0893 0.000248276C16.3954 0.000248276 16.7017 0.000248276 17.0079 0.000248276V0ZM14.5374 11.4885C14.7606 11.593 14.9594 11.6739 15.1464 11.7767C15.338 11.8822 15.4743 11.8098 15.5982 11.6702C15.7204 11.5324 15.8708 11.446 16.0476 11.4003C16.0786 11.3924 16.1106 11.3797 16.1369 11.3616C16.6509 11.0086 17.1797 10.6751 17.6737 10.2963C18.6121 9.57651 19.3654 8.69786 19.8401 7.60122C20.2477 6.65951 20.4215 5.68379 20.2331 4.66387C20.0583 3.71843 19.6055 2.93611 18.8113 2.37774C17.9632 1.78163 17.0059 1.61106 15.9925 1.72428C15.1811 1.8149 14.4296 2.09297 13.7288 2.50908C12.8139 3.05231 12.08 3.79043 11.4716 4.65245C11.0527 5.24583 10.6697 5.86428 10.2642 6.46735C10.1875 6.5813 10.1488 6.68285 10.2076 6.81543C10.3047 7.03391 10.3936 7.25612 10.4941 7.4967C10.9994 6.79755 11.4753 6.12249 11.9691 5.46083C12.2998 5.01766 12.6208 4.5586 13.0081 4.16831C13.9125 3.25763 15.0143 2.79336 16.3157 2.881C16.9413 2.92296 17.5118 3.133 17.9982 3.53198C18.951 4.3138 19.2753 5.34588 19.1084 6.53488C18.9548 7.63077 18.4292 8.54641 17.5722 9.24059C16.8539 9.82205 16.0928 10.3506 15.3495 10.9008C15.0913 11.092 14.8286 11.2774 14.5369 11.488L14.5374 11.4885ZM17.4369 6.06762C17.4267 5.48715 17.2373 5.01046 16.7025 4.73711C16.2993 4.53104 15.8706 4.51987 15.4366 4.63432C14.8206 4.79694 14.3355 5.15794 13.9577 5.65697C13.1503 6.72382 12.3559 7.80034 11.5545 8.8714C11.5128 8.92702 11.5217 8.95855 11.5632 9.00796C11.9919 9.51841 12.4579 9.99113 12.9716 10.4169C13.0312 10.4663 13.0654 10.4569 13.119 10.4182C13.9527 9.81659 14.7923 9.22321 15.6203 8.61369C16.058 8.29143 16.5116 7.98382 16.8584 7.5538C17.2107 7.11708 17.4205 6.6255 17.4369 6.06712V6.06762Z" fill="black"/>
<path id="Vector_2" d="M0 16.2872C0.0240817 16.0839 0.0474186 15.8806 0.0722451 15.6775C0.148959 15.0468 0.322744 14.4423 0.564058 13.8559C1.19564 12.3205 2.24258 11.1216 3.56906 10.1511C3.88187 9.92217 4.20884 9.71213 4.52562 9.48843C4.56659 9.45939 4.60159 9.40427 4.61376 9.35486C4.71902 8.92956 4.90373 8.55243 5.27662 8.30018C5.62842 8.06209 6.10881 8.13632 6.38885 8.45685C6.65623 8.76322 6.66095 9.22923 6.3896 9.54752C6.31785 9.63144 6.30568 9.71734 6.30146 9.81914C6.27961 10.3497 6.48989 10.8122 6.73344 11.2594C7.3335 12.3602 8.13366 13.2997 9.08352 14.1133C9.76376 14.696 10.4929 15.205 11.3286 15.5449C11.4353 15.5883 11.5436 15.6362 11.6555 15.6571C11.7908 15.6822 11.9329 15.6698 12.0684 15.6931C12.2514 15.7246 12.3936 15.665 12.5473 15.568C12.9093 15.3391 13.3624 15.4262 13.6288 15.7519C13.8956 16.0779 13.8914 16.5392 13.6109 16.8543C13.3606 17.1353 13.0414 17.3032 12.6757 17.3767C12.5719 17.3975 12.5101 17.4439 12.4562 17.5303C12.095 18.1088 11.7084 18.6692 11.2578 19.1836C10.2223 20.3659 8.9718 21.224 7.46508 21.6905C6.60782 21.9561 5.72871 22.0594 4.83372 21.969C3.84041 21.8687 2.92853 21.5398 2.12713 20.9369C1.12241 20.1812 0.469717 19.1859 0.179744 17.9638C0.0945889 17.6048 0.0715003 17.2312 0.0191164 16.8645C0.0163855 16.8456 0.00670315 16.8277 0.000248265 16.8091C0.000248265 16.6353 0.000248265 16.4615 0.000248265 16.2877L0 16.2872ZM9.84445 16.7309C9.83874 16.7349 9.8298 16.7378 9.82558 16.7443C9.80448 16.7748 9.78412 16.8059 9.76451 16.8374C9.373 17.469 8.90973 18.0329 8.27517 18.44C7.44472 18.9728 6.547 19.2385 5.55667 19.1213C4.04647 18.9423 2.91488 17.7017 2.85827 16.1805C2.83245 15.4878 2.98464 14.8356 3.28852 14.2171C3.61126 13.5602 4.07428 13.0182 4.65522 12.5748C4.85805 12.4201 5.06014 12.2642 5.25304 12.1162C5.12518 11.8404 5.00279 11.5757 4.87543 11.3009C4.66986 11.4568 4.46331 11.608 4.26271 11.7669C3.22397 12.5899 2.42431 13.5914 1.98984 14.8577C1.68746 15.7385 1.59386 16.6408 1.81978 17.5519C2.14129 18.8482 2.93797 19.7259 4.22075 20.1219C5.37941 20.4796 6.50703 20.3108 7.60113 19.8388C8.45243 19.4716 9.18705 18.9351 9.80299 18.2454C10.1183 17.8923 10.3991 17.5083 10.7005 17.1319C10.3963 16.9894 10.121 16.8602 9.84495 16.7309H9.84445ZM6.2178 13.5135C6.02911 13.6617 5.85111 13.801 5.67335 13.9408C5.16292 14.3422 4.78804 14.8358 4.63163 15.4774C4.52786 15.9039 4.53704 16.3242 4.74509 16.7185C5.02861 17.2558 5.65051 17.5207 6.31114 17.4161C7.334 17.2543 7.95466 16.5931 8.4286 15.7256C7.58747 15.1007 6.85609 14.3609 6.2178 13.5135Z" fill="black"/>
</g>
<defs>
<clipPath id="clip0_6753_129611">
<rect width="22" height="22" fill="white"/>
</clipPath>
</defs>
</svg>
