<svg width="16" height="15" viewBox="0 0 16 15" fill="none" xmlns="http://www.w3.org/2000/svg">
<g id="Group 891">
<path id="Vector (Stroke)" fill-rule="evenodd" clip-rule="evenodd" d="M0.476562 11.8238C0.476562 10.7842 1.31932 9.94141 2.35891 9.94141C2.98294 9.94141 3.58142 10.1893 4.02269 10.6306C4.46395 11.0718 4.71184 11.6703 4.71184 12.2943C4.71184 13.3339 3.86909 14.1767 2.8295 14.1767C2.18951 14.1767 1.62412 13.8573 1.28403 13.3692C0.795949 13.0291 0.476562 12.4637 0.476562 11.8238Z" fill="black"/>
<path id="Vector (Stroke)_2" fill-rule="evenodd" clip-rule="evenodd" d="M3.43172 13.3692C3.91767 13.0306 4.23661 12.4686 4.23918 11.8313C4.24336 10.7917 3.404 9.94561 2.36442 9.94143C2.05409 9.94018 1.74658 10.0004 1.45962 10.1186C1.1727 10.2367 0.911975 10.4106 0.692514 10.63C0.473057 10.8495 0.299239 11.1102 0.181064 11.3971C0.0628813 11.6841 0.00267632 11.9916 0.00392529 12.3019C0.00810877 13.3415 0.854249 14.1809 1.89383 14.1767C2.5311 14.1741 3.09312 13.8552 3.43172 13.3692Z" fill="black"/>
<path id="Vector (Stroke)_3" fill-rule="evenodd" clip-rule="evenodd" d="M3.43172 11.2196C3.09312 10.7336 2.5311 10.4147 1.89383 10.4121C0.854249 10.4079 0.00810877 11.2473 0.00392529 12.2869C0.00267632 12.5972 0.0628813 12.9047 0.181064 13.1917C0.299255 13.4786 0.473086 13.7394 0.692514 13.9588C0.911931 14.1782 1.17264 14.352 1.45962 14.4702C1.74658 14.5884 2.05409 14.6486 2.36442 14.6474C3.404 14.6432 4.24336 13.7971 4.23918 12.7575C4.23661 12.1202 3.91767 11.5582 3.43172 11.2196Z" fill="black"/>
<path id="Vector (Stroke)_4" fill-rule="evenodd" clip-rule="evenodd" d="M2.8295 10.4121C3.86909 10.4121 4.71184 11.2549 4.71184 12.2945C4.71184 12.9185 4.46394 13.517 4.02269 13.9582C3.58145 14.3995 2.98298 14.6474 2.35891 14.6474C1.31932 14.6474 0.476562 13.8046 0.476562 12.765C0.476562 12.1251 0.795949 11.5597 1.28403 11.2196C1.62412 10.7315 2.18951 10.4121 2.8295 10.4121Z" fill="black"/>
<path id="Vector (Stroke)_5" fill-rule="evenodd" clip-rule="evenodd" d="M6.12109 11.8238C6.12109 10.7842 6.96385 9.94141 8.00344 9.94141C8.62747 9.94141 9.22595 10.1893 9.66722 10.6306C10.1085 11.0718 10.3564 11.6703 10.3564 12.2943C10.3564 13.3339 9.51362 14.1767 8.47403 14.1767C7.83404 14.1767 7.26865 13.8573 6.92856 13.3692C6.44048 13.0291 6.12109 12.4637 6.12109 11.8238Z" fill="black"/>
<path id="Vector (Stroke)_6" fill-rule="evenodd" clip-rule="evenodd" d="M9.08016 13.3692C9.5661 13.0306 9.88505 12.4686 9.88761 11.8313C9.8918 10.7917 9.05244 9.94561 8.01286 9.94143C7.70252 9.94018 7.39501 10.0004 7.10806 10.1186C6.82113 10.2367 6.56041 10.4106 6.34095 10.63C6.1215 10.8495 5.94768 11.1102 5.8295 11.3971C5.71132 11.6841 5.65111 11.9916 5.65236 12.3019C5.65655 13.3415 6.50269 14.1809 7.54227 14.1767C8.17953 14.1741 8.74156 13.8552 9.08016 13.3692Z" fill="black"/>
<path id="Vector (Stroke)_7" fill-rule="evenodd" clip-rule="evenodd" d="M9.08016 11.2196C8.74156 10.7336 8.17953 10.4147 7.54227 10.4121C6.50269 10.4079 5.65655 11.2473 5.65236 12.2869C5.65111 12.5972 5.71132 12.9047 5.8295 13.1917C5.94769 13.4787 6.12153 13.7394 6.34095 13.9588C6.56037 14.1782 6.82108 14.352 7.10806 14.4702C7.39501 14.5884 7.70252 14.6486 8.01286 14.6474C9.05244 14.6432 9.8918 13.7971 9.88761 12.7575C9.88505 12.1202 9.5661 11.5582 9.08016 11.2196Z" fill="black"/>
<path id="Vector (Stroke)_8" fill-rule="evenodd" clip-rule="evenodd" d="M8.47403 10.4121C9.51362 10.4121 10.3564 11.2549 10.3564 12.2945C10.3564 12.9185 10.1085 13.517 9.66722 13.9582C9.22598 14.3995 8.62751 14.6474 8.00344 14.6474C6.96385 14.6474 6.12109 13.8046 6.12109 12.765C6.12109 12.1251 6.44048 11.5597 6.92856 11.2196C7.26865 10.7315 7.83404 10.4121 8.47403 10.4121Z" fill="black"/>
<path id="Vector (Stroke)_9" fill-rule="evenodd" clip-rule="evenodd" d="M11.7695 11.8238C11.7695 10.7842 12.6123 9.94141 13.6519 9.94141C14.2759 9.94141 14.8744 10.1893 15.3157 10.6306C15.7569 11.0718 16.0048 11.6703 16.0048 12.2943C16.0048 13.3339 15.1621 14.1767 14.1225 14.1767C13.4825 14.1767 12.9171 13.8573 12.577 13.3692C12.0889 13.0291 11.7695 12.4637 11.7695 11.8238Z" fill="black"/>
<path id="Vector (Stroke)_10" fill-rule="evenodd" clip-rule="evenodd" d="M14.7247 13.3692C15.2106 13.0306 15.5296 12.4686 15.5321 11.8313C15.5363 10.7917 14.697 9.94561 13.6574 9.94143C13.3471 9.94018 13.0395 10.0004 12.7526 10.1186C12.4657 10.2367 12.2049 10.4106 11.9855 10.63C11.766 10.8495 11.5922 11.1102 11.474 11.3971C11.3558 11.6841 11.2956 11.9916 11.2969 12.3019C11.3011 13.3415 12.1472 14.1809 13.1868 14.1767C13.8241 14.1741 14.3861 13.8552 14.7247 13.3692Z" fill="black"/>
<path id="Vector (Stroke)_11" fill-rule="evenodd" clip-rule="evenodd" d="M14.7247 11.2196C14.3861 10.7336 13.8241 10.4147 13.1868 10.4121C12.1472 10.4079 11.3011 11.2473 11.2969 12.2869C11.2956 12.5972 11.3558 12.9047 11.474 13.1917C11.5922 13.4787 11.7661 13.7394 11.9855 13.9588C12.2049 14.1782 12.4656 14.352 12.7526 14.4702C13.0395 14.5884 13.3471 14.6486 13.6574 14.6474C14.697 14.6432 15.5363 13.7971 15.5321 12.7575C15.5296 12.1202 15.2106 11.5582 14.7247 11.2196Z" fill="black"/>
<path id="Vector (Stroke)_12" fill-rule="evenodd" clip-rule="evenodd" d="M14.1225 10.4121C15.1621 10.4121 16.0048 11.2549 16.0048 12.2945C16.0048 12.9185 15.7569 13.517 15.3157 13.9582C14.8744 14.3995 14.2759 14.6474 13.6519 14.6474C12.6123 14.6474 11.7695 13.8046 11.7695 12.765C11.7695 12.1251 12.0889 11.5597 12.577 11.2196C12.9171 10.7315 13.4825 10.4121 14.1225 10.4121Z" fill="black"/>
<path id="Vector (Stroke)_13" fill-rule="evenodd" clip-rule="evenodd" d="M4.23828 7.1177C4.23828 6.07811 5.08104 5.23535 6.12063 5.23535C6.74466 5.23535 7.34314 5.48325 7.7844 5.92451C8.22567 6.36577 8.47356 6.96425 8.47356 7.58829C8.47356 8.62788 7.63081 9.47063 6.59122 9.47063C5.95123 9.47063 5.38584 9.15125 5.04574 8.66317C4.55767 8.32307 4.23828 7.75768 4.23828 7.1177Z" fill="black"/>
<path id="Vector (Stroke)_14" fill-rule="evenodd" clip-rule="evenodd" d="M7.19735 8.66317C7.68329 8.32457 8.00224 7.76254 8.0048 7.12528C8.00899 6.08569 7.16963 5.23955 6.13004 5.23537C5.81971 5.23412 5.5122 5.29432 5.22525 5.41251C4.93832 5.53068 4.6776 5.7045 4.45814 5.92396C4.23868 6.14341 4.06487 6.40413 3.94669 6.69107C3.8285 6.97802 3.7683 7.28553 3.76955 7.59586C3.77373 8.63545 4.61987 9.47481 5.65946 9.47062C6.29672 9.46806 6.85875 9.14911 7.19735 8.66317Z" fill="black"/>
<path id="Vector (Stroke)_15" fill-rule="evenodd" clip-rule="evenodd" d="M7.19735 6.51352C6.85875 6.02758 6.29672 5.70863 5.65946 5.70607C4.61987 5.70189 3.77373 6.54124 3.76955 7.58083C3.7683 7.89116 3.8285 8.19867 3.94669 8.48563C4.06488 8.7726 4.23871 9.03331 4.45814 9.25273C4.67756 9.47215 4.93826 9.64599 5.22525 9.76418C5.5122 9.88237 5.81971 9.94257 6.13004 9.94132C7.16963 9.93714 8.00899 9.091 8.0048 8.05141C8.00224 7.41415 7.68329 6.85213 7.19735 6.51352Z" fill="black"/>
<path id="Vector (Stroke)_16" fill-rule="evenodd" clip-rule="evenodd" d="M6.59122 5.70605C7.63081 5.70605 8.47356 6.54881 8.47356 7.5884C8.47356 8.21245 8.22566 8.81092 7.7844 9.25218C7.34317 9.69341 6.7447 9.94134 6.12063 9.94134C5.08104 9.94134 4.23828 9.09858 4.23828 8.05899C4.23828 7.419 4.55767 6.85361 5.04574 6.51352C5.38584 6.02544 5.95123 5.70605 6.59122 5.70605Z" fill="black"/>
<path id="Vector (Stroke)_17" fill-rule="evenodd" clip-rule="evenodd" d="M9.88672 7.1177C9.88672 6.07811 10.7295 5.23535 11.7691 5.23535C12.3931 5.23535 12.9916 5.48325 13.4328 5.92451C13.8741 6.36577 14.122 6.96425 14.122 7.58829C14.122 8.62788 13.2792 9.47063 12.2397 9.47063C11.5997 9.47063 11.0343 9.15125 10.6942 8.66317C10.2061 8.32307 9.88672 7.75768 9.88672 7.1177Z" fill="black"/>
<path id="Vector (Stroke)_18" fill-rule="evenodd" clip-rule="evenodd" d="M7.47266 1.88235C7.47266 0.842756 8.31541 0 9.355 0C9.97904 0 10.5775 0.247894 11.0188 0.689158C11.46 1.13042 11.7079 1.7289 11.7079 2.35293C11.7079 3.39253 10.8652 4.23528 9.82559 4.23528C9.18561 4.23528 8.62022 3.9159 8.28012 3.42782C7.79204 3.08772 7.47266 2.52233 7.47266 1.88235Z" fill="black"/>
<path id="Vector (Stroke)_19" fill-rule="evenodd" clip-rule="evenodd" d="M12.8419 8.66317C13.3278 8.32457 13.6468 7.76254 13.6493 7.12528C13.6535 6.08569 12.8142 5.23955 11.7746 5.23537C11.4642 5.23412 11.1567 5.29432 10.8698 5.41251C10.5829 5.53068 10.3221 5.7045 10.1027 5.92396C9.88322 6.14341 9.7094 6.40413 9.59122 6.69107C9.47304 6.97802 9.41283 7.28553 9.41408 7.59586C9.41827 8.63545 10.2644 9.47481 11.304 9.47062C11.9413 9.46806 12.5033 9.14911 12.8419 8.66317Z" fill="black"/>
<path id="Vector (Stroke)_20" fill-rule="evenodd" clip-rule="evenodd" d="M10.4317 3.42782C10.9177 3.08922 11.2366 2.52719 11.2392 1.88993C11.2434 0.850343 10.404 0.00420252 9.36442 1.90421e-05C9.05409 -0.00122993 8.74658 0.0589731 8.45962 0.177157C8.1727 0.29533 7.91197 0.469144 7.69251 0.688605C7.47306 0.908059 7.29924 1.16878 7.18106 1.45572C7.06288 1.74267 7.00268 2.05018 7.00393 2.36051C7.00811 3.4001 7.85425 4.23945 8.89383 4.23527C9.5311 4.23271 10.0931 3.91376 10.4317 3.42782Z" fill="black"/>
<path id="Vector (Stroke)_21" fill-rule="evenodd" clip-rule="evenodd" d="M12.8419 6.51352C12.5033 6.02758 11.9413 5.70863 11.304 5.70607C10.2644 5.70189 9.41827 6.54124 9.41408 7.58083C9.41283 7.89116 9.47304 8.19867 9.59122 8.48563C9.70941 8.7726 9.88324 9.03331 10.1027 9.25273C10.3221 9.47215 10.5828 9.64599 10.8698 9.76418C11.1567 9.88237 11.4642 9.94257 11.7746 9.94132C12.8142 9.93714 13.6535 9.091 13.6493 8.05141C13.6468 7.41415 13.3278 6.85213 12.8419 6.51352Z" fill="black"/>
<path id="Vector (Stroke)_22" fill-rule="evenodd" clip-rule="evenodd" d="M10.4317 1.27817C10.0931 0.792228 9.5311 0.473283 8.89383 0.470719C7.85425 0.466535 7.00811 1.30589 7.00393 2.34548C7.00268 2.65581 7.06288 2.96332 7.18106 3.25027C7.29926 3.53725 7.47309 3.79796 7.69251 4.01738C7.91193 4.2368 8.17264 4.41064 8.45962 4.52883C8.74658 4.64702 9.05409 4.70722 9.36442 4.70597C10.404 4.70179 11.2434 3.85565 11.2392 2.81606C11.2366 2.1788 10.9177 1.61677 10.4317 1.27817Z" fill="black"/>
<path id="Vector (Stroke)_23" fill-rule="evenodd" clip-rule="evenodd" d="M12.2397 5.70605C13.2792 5.70605 14.122 6.54881 14.122 7.5884C14.122 8.21245 13.8741 8.81092 13.4328 9.25218C12.9916 9.69341 12.3931 9.94134 11.7691 9.94134C10.7295 9.94134 9.88672 9.09858 9.88672 8.05899C9.88672 7.419 10.2061 6.85361 10.6942 6.51352C11.0343 6.02544 11.5997 5.70605 12.2397 5.70605Z" fill="black"/>
<path id="Vector (Stroke)_24" fill-rule="evenodd" clip-rule="evenodd" d="M9.82559 0.470703C10.8652 0.470703 11.7079 1.31346 11.7079 2.35305C11.7079 2.9771 11.46 3.57557 11.0188 4.01682C10.5775 4.45806 9.97907 4.70599 9.355 4.70599C8.31541 4.70599 7.47266 3.86323 7.47266 2.82364C7.47266 2.18365 7.79204 1.61826 8.28012 1.27817C8.62022 0.790089 9.18561 0.470703 9.82559 0.470703Z" fill="black"/>
</g>
</svg>
