<svg width="24" height="21" viewBox="0 0 24 21" fill="none" xmlns="http://www.w3.org/2000/svg">
<g id="Calque_1" clip-path="url(#clip0_6747_3877)">
<path id="Vector" d="M13.1722 20.7499C13.1722 20.7499 13.1422 20.7499 13.1322 20.7499C12.7522 20.7299 12.4322 20.4699 12.3322 20.0999C10.9322 14.8199 8.06223 10.0799 4.04223 6.37988C3.68223 6.04988 3.66223 5.49988 3.99223 5.13988C4.32223 4.77988 4.87223 4.75988 5.23223 5.08988C8.94223 8.48988 11.7222 12.7299 13.3622 17.4599C14.3922 15.5799 16.2422 12.9299 18.9322 11.5799C19.3722 11.3599 19.8922 11.5399 20.1022 11.9699C20.3222 12.3999 20.1422 12.9299 19.7122 13.1399C15.9822 14.9999 14.0222 20.1199 14.0022 20.1699C13.8722 20.5099 13.5422 20.7399 13.1822 20.7399L13.1722 20.7499Z" fill="black"/>
<path id="Vector_2" d="M18.5448 18.2999C18.3448 18.2999 18.1548 18.2799 17.9648 18.2499C17.1348 18.0899 16.0048 17.5099 15.1948 15.6699C13.7648 14.6199 13.4648 13.5099 13.4648 12.7399C13.4648 11.5699 14.1748 10.4199 15.4148 9.59988C16.4748 8.89988 17.5348 8.61988 18.5548 8.35988C19.7048 8.05988 20.7948 7.77988 21.9548 6.89988C22.1748 6.72988 22.4648 6.67988 22.7348 6.75988C23.0048 6.83988 23.2148 7.04988 23.3048 7.30988C23.8248 8.82988 23.9848 10.4699 23.7548 12.0599C23.5348 13.6499 22.9348 15.1899 22.0148 16.4999C21.9848 16.5399 21.9648 16.5699 21.9348 16.5999C20.9048 17.6799 19.6748 18.2899 18.5348 18.2899L18.5448 18.2999ZM21.9648 8.97988C20.9148 9.55988 19.9148 9.80988 19.0048 10.0499C18.0448 10.2999 17.2048 10.5099 16.3948 11.0499C15.6648 11.5399 15.2248 12.1699 15.2248 12.7399C15.2248 13.4299 15.8648 14.0099 16.4048 14.3699C16.5548 14.4699 16.6648 14.6099 16.7248 14.7699C17.0148 15.4899 17.5148 16.3699 18.3048 16.5199C19.1048 16.6699 20.0248 16.0699 20.6448 15.4499C21.3848 14.3699 21.8748 13.1199 22.0548 11.8199C22.1848 10.8799 22.1548 9.90988 21.9748 8.97988H21.9648Z" fill="black"/>
<path id="Vector_3" d="M6.5746 15.7397C5.1546 15.7397 3.6046 14.8297 2.1646 13.1397C0.0546029 10.6497 -0.885397 4.17972 1.0846 0.469717C1.2046 0.239717 1.4346 0.069717 1.6946 0.019717C1.9546 -0.030283 2.2246 0.039717 2.4246 0.209717C3.8246 1.38972 5.4246 1.87972 6.9746 2.33972C8.7146 2.86972 10.5246 3.40972 11.8246 4.94972C13.2246 6.58972 13.7646 8.13972 13.4346 9.56972C13.1246 10.8997 12.0746 11.9897 10.3046 12.8297C9.4646 14.5497 8.3646 15.5197 7.0346 15.7097C6.8846 15.7297 6.7346 15.7397 6.5746 15.7397ZM2.2346 2.23972C1.2246 5.34972 1.9846 10.2197 3.5046 12.0097C4.6746 13.3897 5.8746 14.1097 6.7846 13.9797C7.5546 13.8697 8.2546 13.1397 8.8446 11.8097C8.9346 11.6097 9.0946 11.4497 9.2946 11.3697C10.7146 10.7497 11.5346 10.0097 11.7246 9.17972C11.9746 8.10972 11.1846 6.90972 10.4846 6.08972C9.5146 4.93972 8.1046 4.51972 6.4646 4.01972C5.1246 3.61972 3.6346 3.16972 2.2246 2.24972L2.2346 2.23972Z" fill="black"/>
</g>
<defs>
<clipPath id="clip0_6747_3877">
<rect width="23.86" height="20.75" fill="white" transform="translate(0.00390625)"/>
</clipPath>
</defs>
</svg>
