<svg width="24" height="24" viewBox="0 0 24 24" fill="none" xmlns="http://www.w3.org/2000/svg">
<g id="potatoe" clip-path="url(#clip0_6689_110562)">
<path id="Union" fill-rule="evenodd" clip-rule="evenodd" d="M21.9167 5.32871C22.7101 6.39633 23.2148 7.6807 23.4162 9.14867L23.417 9.14786C23.6726 11.0113 23.1679 12.7988 21.9183 14.4617C20.9348 15.7695 19.6925 16.7465 18.5035 17.6346C16.4791 19.1479 14.4434 20.137 12.279 20.6579C11.0666 20.949 9.84048 21.1076 8.63213 21.1278H8.62404H8.61838C6.26801 21.0987 4.46358 20.5851 2.93899 19.5102C-1.36058 16.4804 -0.626192 10.8205 3.1323 7.7082C4.99011 6.17067 7.26526 5.2446 9.50644 4.41881C11.9336 3.52428 14.5129 2.86026 17.1197 3.02525C19.2961 3.16356 20.8652 3.91736 21.9167 5.32871ZM20.0216 13.682C20.9065 12.6694 21.3917 11.6382 21.5042 10.5293H21.5034C21.6142 9.43579 21.3642 8.32855 20.7156 7.04256C20.3209 6.26045 19.7005 5.69267 18.8699 5.35378C17.5944 4.83373 16.2381 4.8863 15.1996 4.99063L15.088 5.00277C15.1923 5.11762 15.2966 5.23247 15.4018 5.34731C15.7682 5.74686 15.7916 6.29361 15.4584 6.67617C15.1106 7.07653 14.5606 7.12263 14.1223 6.79021L14.1117 6.78212C13.9678 6.67294 13.8052 6.54919 13.6718 6.3753C13.4501 6.08575 13.2382 5.79296 13.015 5.48319C12.9932 5.45327 12.9713 5.42334 12.9495 5.39261C10.3347 6.2467 7.58393 7.24961 4.98526 8.72728C5.21172 8.99095 5.42767 9.24006 5.6606 9.47381C6.21787 10.0335 6.00434 10.5422 5.88626 10.7355C5.74795 10.9628 5.53928 11.1197 5.29907 11.1763C5.05239 11.2346 4.796 11.1868 4.55821 11.038C4.27109 10.8585 3.99205 10.6263 3.72757 10.3465C3.63294 10.2462 3.55125 10.1411 3.47523 10.0343C3.16222 10.3627 2.89694 10.7113 2.67128 11.0898C1.56484 12.9427 1.47264 14.5887 2.3882 16.1221C3.36442 17.7575 4.8793 18.7337 7.00402 19.0937C6.92961 18.8761 6.85843 18.6634 6.7913 18.4474C6.66594 18.0438 6.7452 17.7583 6.83417 17.5901C6.94983 17.3709 7.14798 17.2116 7.40842 17.1315C7.50062 17.1032 7.59848 17.087 7.69797 17.087C8.05303 17.087 8.43074 17.2917 8.64103 17.8732C8.72745 18.1128 8.82531 18.3562 8.92054 18.5931L8.92055 18.5931L8.92056 18.5931L8.92896 18.614L8.97055 18.7178L8.97061 18.718L8.97069 18.7182C9.03364 18.8751 9.09777 19.0349 9.15866 19.1964H9.1627C11.6716 19.0678 14.0859 18.2533 16.3384 16.7748C16.7719 16.4901 17.1989 16.1779 17.6114 15.8755C17.6677 15.8346 17.7236 15.7937 17.779 15.7531L17.8395 15.7088C17.8271 15.6852 17.8149 15.6616 17.8026 15.6379L17.8023 15.6373C17.79 15.6134 17.7776 15.5895 17.7651 15.5657C17.5661 15.1831 17.3785 14.8216 17.2005 14.4503C17.0064 14.0451 17.0501 13.737 17.1205 13.5502C17.2103 13.3124 17.3906 13.1304 17.6422 13.0236C18.066 12.8433 18.6378 12.9177 18.9694 13.6666L19.0082 13.754L19.0087 13.755L19.0087 13.7551C19.0708 13.8962 19.1297 14.0301 19.1959 14.1519C19.2387 14.2304 19.2832 14.3088 19.3285 14.3881C19.5768 14.1495 19.8122 13.9222 20.0216 13.682ZM5.69295 15.103C5.80941 15.2155 5.89596 15.3376 5.97926 15.4565L5.98088 15.4549C6.01485 15.5042 6.05125 15.556 6.09169 15.6094C6.2219 15.7816 6.22271 16.0202 6.0933 16.1933C6.0658 16.2305 6.03831 16.2742 6.00919 16.3211C5.91537 16.4723 5.79809 16.6608 5.57001 16.7587C5.44707 16.8112 5.29178 16.8428 5.13407 16.8428C4.93349 16.8428 4.72886 16.7926 4.57761 16.6721C3.66205 15.9418 3.08295 15.1952 2.75458 14.3217C2.60819 13.9327 2.6737 13.6415 2.75458 13.4652C2.85892 13.238 3.05465 13.0624 3.30618 12.9702C3.73161 12.8141 4.28806 12.9128 4.57519 13.6569C4.78709 14.2061 5.18907 14.6194 5.69295 15.103ZM13.252 12.6378C13.1921 12.5456 13.1007 12.4057 12.9713 12.2803C12.4359 11.7635 12.0097 11.3203 11.805 10.7153C11.6384 10.2211 11.1224 9.97041 10.6048 10.1322C10.1082 10.2875 9.82671 10.8164 9.97634 11.3122C10.2659 12.269 10.8757 13.0843 11.8956 13.8785C12.0517 13.9998 12.2345 14.0621 12.4197 14.0621C12.5483 14.0621 12.6785 14.0322 12.8031 13.9715C13.1582 13.7976 13.379 13.4159 13.379 12.9751C13.379 12.8724 13.345 12.7705 13.2843 12.688C13.277 12.6782 13.2692 12.666 13.2605 12.6527L13.252 12.6394V12.6378ZM20.2554 10.3716C20.0217 10.3716 19.7758 10.3012 19.614 10.1411L19.6132 10.1403C18.9063 9.43984 18.438 8.58494 18.2213 7.59901C18.108 7.08623 18.3968 6.63492 18.9233 6.50147C19.4458 6.36883 19.9165 6.62279 20.0669 7.11939C20.2675 7.78018 20.5741 8.34311 21.0043 8.84052C21.1067 8.95984 21.1497 9.0896 21.1844 9.19457L21.1847 9.19558C21.196 9.23036 21.209 9.26918 21.226 9.31205C21.2931 9.47947 21.2624 9.66954 21.1459 9.80622C21.1327 9.82166 21.1128 9.85044 21.0928 9.87924L21.0868 9.88791C20.9971 10.0189 20.8612 10.2155 20.6234 10.3077C20.5158 10.3489 20.3872 10.3716 20.2554 10.3716Z" fill="black"/>
</g>
<defs>
<clipPath id="clip0_6689_110562">
<rect width="24" height="24" fill="white" transform="translate(0.00390625)"/>
</clipPath>
</defs>
</svg>
