<svg width="14" height="14" viewBox="0 0 14 14" fill="none" xmlns="http://www.w3.org/2000/svg">
<g id="Icon" clip-path="url(#clip0_6627_10284)">
<path id="Union" fill-rule="evenodd" clip-rule="evenodd" d="M12.7824 3.10842C13.2453 3.73119 13.5397 4.48041 13.6572 5.33672L13.6576 5.33625C13.8067 6.42328 13.5123 7.46596 12.7834 8.43598C12.2097 9.19887 11.485 9.76881 10.7914 10.2868C9.61053 11.1696 8.42301 11.7466 7.16048 12.0504C6.45325 12.2203 5.738 12.3128 5.03313 12.3245H5.02841H5.02511C3.65406 12.3076 2.60148 12.008 1.71213 11.3809C-0.795951 9.61359 -0.367557 6.31193 1.82489 4.49645C2.90862 3.59956 4.23579 3.05935 5.54315 2.57764C6.95902 2.05583 8.46358 1.66848 9.98419 1.76473C11.2538 1.84541 12.1691 2.28513 12.7824 3.10842ZM11.677 7.98116C12.1932 7.39047 12.4762 6.78892 12.5418 6.14209H12.5413C12.606 5.50421 12.4602 4.85832 12.0818 4.10816C11.8516 3.65193 11.4897 3.32073 11.0052 3.12304C10.2611 2.81967 9.46993 2.85034 8.86414 2.9112L8.79904 2.91828C8.8599 2.98528 8.92076 3.05227 8.98209 3.11927C9.19582 3.35234 9.2095 3.67127 9.01512 3.89443C8.81225 4.12797 8.49142 4.15487 8.23571 3.96096L8.22957 3.95624C8.14559 3.89255 8.05076 3.82036 7.97291 3.71892C7.84364 3.55002 7.72003 3.37923 7.58981 3.19853L7.58977 3.19847L7.58977 3.19846L7.58976 3.19846C7.57704 3.18102 7.56432 3.16359 7.5516 3.14569C6.02627 3.64391 4.42168 4.22894 2.90579 5.09092C3.03789 5.24472 3.16386 5.39004 3.29974 5.52639C3.62481 5.85287 3.50025 6.14963 3.43137 6.26239C3.35069 6.39497 3.22897 6.4865 3.08885 6.51952C2.94495 6.55349 2.79539 6.52566 2.65668 6.43885C2.48919 6.33411 2.32642 6.1987 2.17214 6.03546C2.11694 5.97696 2.06929 5.91562 2.02494 5.85334C1.84235 6.04489 1.6876 6.24824 1.55597 6.46904C0.910547 7.54993 0.856762 8.51005 1.39084 9.40458C1.9603 10.3586 2.84398 10.928 4.0834 11.138C4.03999 11.0111 3.99847 10.887 3.95932 10.761C3.88619 10.5256 3.93242 10.359 3.98432 10.2609C4.05179 10.133 4.16738 10.0401 4.3193 9.99338C4.37308 9.97687 4.43017 9.96743 4.4882 9.96743C4.69532 9.96743 4.91565 10.0868 5.03832 10.426C5.08873 10.5658 5.14582 10.7078 5.20137 10.846L5.20139 10.846L5.20628 10.8582L5.23055 10.9187C5.2673 11.0103 5.30473 11.1036 5.34027 11.1979H5.34263C6.80615 11.1229 8.21448 10.6478 9.52844 9.78532C9.78132 9.61925 10.0304 9.43713 10.271 9.26068L10.3688 9.18935L10.4041 9.16349L10.3824 9.12174L10.3607 9.07998C10.2446 8.85682 10.1352 8.64593 10.0314 8.42937C9.91814 8.193 9.94362 8.01324 9.98467 7.90426C10.037 7.76555 10.1422 7.65939 10.289 7.59712C10.5362 7.4919 10.8698 7.53531 11.0632 7.9722L11.0858 8.02315L11.0861 8.02379L11.0861 8.02381C11.1224 8.10613 11.1567 8.18422 11.1953 8.25528C11.2203 8.30104 11.2463 8.3468 11.2727 8.39304C11.4175 8.25386 11.5548 8.12128 11.677 7.98116ZM3.31861 8.81011C3.38655 8.87569 3.43703 8.94693 3.48562 9.01629L3.48657 9.01534C3.50638 9.04412 3.52762 9.07432 3.5512 9.10546C3.62716 9.20595 3.62764 9.34513 3.55215 9.4461C3.53611 9.4678 3.52007 9.49328 3.50308 9.52064C3.44835 9.60887 3.37994 9.7188 3.24689 9.77588C3.17518 9.80655 3.0846 9.82495 2.99259 9.82495C2.87559 9.82495 2.75622 9.7957 2.668 9.7254C2.13392 9.29937 1.79611 8.8639 1.60456 8.35435C1.51916 8.12742 1.55738 7.95757 1.60456 7.85472C1.66542 7.72214 1.7796 7.61976 1.92633 7.56598C2.17449 7.47492 2.49909 7.53248 2.66658 7.96653C2.79019 8.28689 3.02468 8.52798 3.31861 8.81011ZM7.72804 7.37207C7.69313 7.31828 7.63981 7.23666 7.56433 7.16353C7.252 6.86205 7.00336 6.60351 6.88399 6.2506C6.7868 5.96233 6.48579 5.81607 6.18384 5.91043C5.89416 6.00102 5.72997 6.30957 5.81725 6.59879C5.98616 7.15693 6.34189 7.6325 6.93683 8.09581C7.02789 8.16658 7.13452 8.20291 7.24256 8.20291C7.31757 8.20291 7.39354 8.18545 7.46619 8.15006C7.67331 8.04863 7.80211 7.82594 7.80211 7.56881C7.80211 7.50889 7.7823 7.44944 7.74691 7.40132C7.74262 7.3956 7.73806 7.38852 7.73302 7.38071L7.72804 7.37301V7.37207ZM11.8134 6.05008C11.677 6.05008 11.5336 6.00904 11.4392 5.91562L11.4388 5.91515C11.0264 5.50657 10.7532 5.00788 10.6268 4.43276C10.5607 4.13364 10.7292 3.87037 11.0363 3.79252C11.3411 3.71515 11.6157 3.86329 11.7034 4.15298C11.8204 4.53844 11.9993 4.86681 12.2503 5.15697C12.31 5.22657 12.335 5.30226 12.3553 5.36349L12.3555 5.36409C12.3621 5.38438 12.3696 5.40702 12.3795 5.43203C12.4187 5.52969 12.4008 5.64056 12.3328 5.7203C12.3251 5.7293 12.3135 5.7461 12.3019 5.7629L12.2984 5.76795C12.246 5.84438 12.1667 5.95903 12.028 6.01281C11.9653 6.03687 11.8903 6.05008 11.8134 6.05008Z" fill="#96582C"/>
</g>
<defs>
<clipPath id="clip0_6627_10284">
<rect width="14" height="14" fill="white"/>
</clipPath>
</defs>
</svg>
