<svg width="24" height="24" viewBox="0 0 24 24" fill="none" xmlns="http://www.w3.org/2000/svg">
<g id="seed">
<path id="icon" fill-rule="evenodd" clip-rule="evenodd" d="M16.7424 6.21697C16.8537 5.19557 16.847 4.16316 16.7213 3.14452H16.7204C16.6572 2.63382 16.588 2.11578 16.5003 1.60049C16.3636 0.798618 15.7875 0.155655 15.047 0.0316546C14.4337 -0.0712196 13.8669 0.0858472 13.3271 0.36967C11.8569 1.14214 10.568 2.1865 9.44533 3.47518C8.33277 4.75285 7.41927 6.16553 6.91486 7.86387C6.79593 8.26618 6.90136 8.4655 7.2919 8.71534C7.8756 9.08918 8.42049 9.53098 8.92321 10.0261C9.45798 10.5515 9.70344 10.5781 9.88057 9.97922C9.9366 9.79008 9.99069 9.60017 10.0448 9.41028C10.1861 8.91408 10.3274 8.41805 10.5031 7.93643C10.6979 7.40186 10.9501 6.88473 11.2251 6.39148C11.4014 6.07551 11.7084 6.02683 12.0003 6.23717C12.2904 6.4466 12.3191 6.74328 12.1976 7.08497C12.0316 7.5513 11.8684 8.01887 11.7051 8.48646C11.4462 9.22812 11.1873 9.96982 10.9172 10.7067C10.6448 11.4525 10.6448 12.1139 11.2496 12.6778C11.3275 12.7507 11.3864 12.8486 11.4453 12.9464C11.4725 12.9915 11.4997 13.0366 11.5288 13.0792C11.8527 13.5532 12.034 13.555 12.3478 13.0746C13.2832 11.6417 14.3932 10.3916 15.6931 9.35096C16.1772 8.96334 16.4716 8.46918 16.5534 7.83815C16.6217 7.30449 16.6825 6.769 16.7424 6.21697ZM9.68817 23.0883L9.68742 23.0891C9.42448 22.7289 9.15773 22.372 8.89112 22.0152L8.89088 22.0149C8.27004 21.1841 7.64991 20.3543 7.0801 19.4859C6.51861 18.6296 6.04678 17.7002 5.57706 16.775C5.52532 16.6731 5.47361 16.5712 5.4218 16.4695C5.24214 16.1159 5.42264 15.7282 5.72293 15.5969C6.05189 15.4527 6.35048 15.6309 6.52846 16.0323C6.56506 16.115 6.60125 16.1983 6.63749 16.2817L6.63752 16.2818C6.8176 16.6961 6.99882 17.113 7.23615 17.4854C7.86792 18.4774 8.53681 19.4409 9.20823 20.4017C9.53972 20.8747 9.89736 21.3294 10.2736 21.762C10.348 21.8475 10.471 21.8835 10.594 21.9195C10.6507 21.9361 10.7075 21.9527 10.7594 21.9742C10.7669 21.9221 10.7759 21.8701 10.7849 21.8181C10.8064 21.6937 10.828 21.5692 10.8286 21.4442C10.8291 21.3699 10.8033 21.296 10.7773 21.2215C10.7625 21.179 10.7476 21.1363 10.7375 21.0933C10.2769 19.1681 10.5266 17.3072 11.1474 15.4729C11.2124 15.28 11.2461 14.9907 11.1592 14.8354C9.66287 12.1469 7.61656 10.1097 4.9815 8.81086C4.10174 8.37732 3.27343 8.68503 2.75468 9.58242C2.54972 9.93697 2.38186 10.3457 2.3051 10.7545C1.73153 13.8223 1.95506 16.8194 3.16631 19.6724C3.92967 21.469 5.09706 22.9 6.80175 23.7093C7.94098 24.2501 8.80961 24.0345 9.68742 23.0891L9.68817 23.0902V23.0883ZM14.0945 22.8174C12.5611 22.5161 11.8761 21.6472 11.7378 19.9424C11.5379 17.4799 12.2506 15.3342 13.5985 13.4035C14.9566 11.459 16.6233 9.91034 18.6873 8.93119C19.1521 8.71075 19.7231 8.65656 20.2385 8.68411C20.9656 8.72361 21.4396 9.22053 21.6319 9.99851C22.0124 11.5398 22.0638 13.1141 21.9508 14.6894C21.8099 16.6578 21.346 18.5389 20.4958 20.297C19.5063 22.3416 17.9594 23.2858 15.8414 23.1177C15.4348 23.0856 15.2847 22.923 15.3893 22.4996C15.8524 20.6295 16.3247 18.7612 16.8241 16.9012C16.9027 16.6075 17.0453 16.3333 17.1874 16.0602L17.1874 16.0601C17.2404 15.9582 17.2933 15.8565 17.3428 15.754C17.5123 15.4022 17.4719 15.0908 17.1707 14.8694C16.8637 14.6435 16.5406 14.7151 16.3677 15.0513L16.2994 15.1837L16.2994 15.1837C16.02 15.7246 15.7347 16.2768 15.5748 16.8635C15.2158 18.1799 14.8933 19.5084 14.5707 20.837L14.5706 20.8372C14.4491 21.3376 14.3276 21.8381 14.2042 22.3379C14.1785 22.4413 14.1553 22.5459 14.1323 22.6497L14.1323 22.6498C14.1198 22.7063 14.1073 22.7626 14.0945 22.8183V22.8174Z" fill="black"/>
</g>
</svg>
