<svg width="16" height="16" viewBox="0 0 16 16" fill="none" xmlns="http://www.w3.org/2000/svg">
<g id="Icon" clip-path="url(#clip0_6627_11294)">
<path id="icon" fill-rule="evenodd" clip-rule="evenodd" d="M15.4702 3.33497C14.8383 2.8315 14.1011 2.54488 13.2792 2.48298C12.5802 2.43015 11.8845 2.57248 11.0901 2.93007C10.1192 3.3673 9.27989 3.29239 8.52379 2.70061C8.12248 2.38678 7.8694 2.38639 7.48149 2.69864C7.04707 3.04835 6.56298 3.21118 6.0032 3.19856C5.5124 3.18713 5.05985 2.99552 4.66051 2.82638C3.25593 2.23223 1.90063 2.37614 0.63166 3.25454C0.236659 3.52776 0.00683317 3.95278 0.000131557 4.42037C-0.00617584 4.8915 0.214583 5.32598 0.605642 5.613C1.11418 5.98557 1.6645 6.22962 2.24123 6.33804C2.42335 6.37234 2.61021 6.39363 2.79076 6.41373L2.83654 6.41897C2.8862 6.42462 2.93573 6.43027 2.9855 6.4366C2.98737 6.47047 2.98887 6.50435 2.99039 6.53834L2.99039 6.53835L2.9926 6.58721C2.99457 6.63215 2.99654 6.6771 2.9989 6.72204C3.07302 8.14808 3.42899 9.47712 4.05697 10.6713C4.33962 11.2091 4.5387 11.7157 4.66524 12.2196C4.85446 12.9726 5.2333 13.5837 5.79111 14.0363C6.41436 14.5418 7.17913 14.8055 7.96046 14.8055C8.32905 14.8055 8.70119 14.7468 9.06426 14.6269C10.1953 14.2536 11.046 13.3491 11.34 12.207C11.4757 11.6806 11.6692 11.1858 11.9318 10.6942C12.4856 9.65769 12.8317 8.49581 12.9607 7.24128C12.9811 7.04061 12.9953 6.83599 13.0087 6.63767C13.0132 6.57067 13.0179 6.50366 13.0227 6.43633L13.0237 6.42201C13.0367 6.42044 13.0482 6.41965 13.0592 6.41925C13.8748 6.4027 14.6542 6.13775 15.3748 5.63074C15.7584 5.36107 15.9862 4.94118 16 4.47832C16.0134 4.03084 15.8207 3.61411 15.4706 3.33537L15.4702 3.33497ZM14.6621 4.44442C14.6621 4.47596 14.6388 4.50947 14.597 4.53864C14.07 4.90688 13.5153 5.08824 12.9536 5.07917L12.5436 3.84514C13.2524 3.71859 13.9415 3.88615 14.5927 4.34348C14.638 4.37503 14.6629 4.4109 14.6625 4.44402L14.6621 4.44442ZM3.45737 3.84554L3.04187 5.09455C2.9931 5.08778 2.94304 5.08166 2.89112 5.07531L2.87433 5.07326C2.68787 5.05118 2.4955 5.02792 2.31652 4.96838C2.01968 4.86982 1.73269 4.71606 1.45478 4.56703L1.42639 4.55205C1.3716 4.52287 1.33888 4.48502 1.33651 4.44836C1.33454 4.41642 1.35583 4.38252 1.39683 4.35374C1.91048 3.98826 2.44819 3.80414 3.00088 3.80414C3.15186 3.80414 3.30442 3.81794 3.45737 3.84554ZM8.77648 13.3152C8.73864 13.3274 8.70434 13.3381 8.67004 13.3464C8.67004 13.2987 8.67004 13.251 8.66965 13.2036L8.66963 13.1995C8.66885 12.9641 8.66811 12.7418 8.67517 12.5149C8.67911 12.5062 8.69922 12.479 8.75243 12.4412C8.80891 12.401 8.86961 12.3628 8.92847 12.3258L8.93062 12.3245L8.93083 12.3243C9.03089 12.2613 9.1341 12.1963 9.22628 12.1167C9.50774 11.8726 9.54283 11.4606 9.3067 11.1783C9.07451 10.9008 8.67123 10.8653 8.36887 11.0956C8.05862 11.3313 7.94785 11.3305 7.62577 11.09C7.32617 10.8657 6.93827 10.8988 6.70332 11.1685C6.46009 11.4476 6.48768 11.8604 6.76639 12.1084C6.93157 12.2555 7.07585 12.3544 7.22052 12.4199C7.32144 12.4652 7.33721 12.5082 7.33406 12.6134C7.32854 12.8031 7.32933 12.9908 7.33051 13.1895C7.33051 13.24 7.3309 13.2913 7.33129 13.343V13.343L7.3313 13.344C6.99188 13.2604 6.7112 13.098 6.47546 12.85C6.20464 12.5653 6.02251 12.203 5.91884 11.7429C5.80373 11.2316 5.61569 10.7411 5.34407 10.2432C4.72595 9.10967 4.38022 7.8583 4.31676 6.52373C4.28207 5.79987 4.37825 5.17419 4.61045 4.61158C4.64272 4.53324 4.68129 4.45648 4.72222 4.375L4.7224 4.37463C4.73204 4.35575 4.74129 4.33686 4.75091 4.31724L4.75095 4.31716L4.75157 4.31589C5.27666 4.48699 5.77416 4.55836 6.27087 4.53352C6.84642 4.50474 7.38176 4.34309 7.90724 4.03833C7.95297 4.01191 8.0393 4.00561 8.06572 4.02138C9.00276 4.58122 10.0088 4.68807 11.1402 4.34861C11.1559 4.34388 11.1713 4.33915 11.1871 4.33402C11.2068 4.32771 11.2261 4.3218 11.245 4.31628C11.4366 4.63997 11.5628 5.02082 11.6199 5.44899C11.8226 6.972 11.5352 8.48635 10.7408 10.0784C10.4779 10.6051 10.2138 11.1791 10.062 11.806C9.86884 12.6044 9.44822 13.0984 8.77648 13.316V13.3152ZM5.93945 6.93021H5.93236C5.57402 6.93021 5.2689 7.23182 5.26496 7.59217C5.26298 7.76841 5.33079 7.93636 5.45654 8.06489C5.5823 8.19342 5.74905 8.26517 5.92566 8.26714H5.93236C6.10739 8.26714 6.27256 8.19933 6.39792 8.07632C6.52486 7.95134 6.59582 7.78457 6.59739 7.60637C6.60094 7.23774 6.30568 6.93455 5.93945 6.93061V6.93021ZM10.0665 6.93021H10.0681H10.0685C10.4296 6.93021 10.7351 7.23537 10.7363 7.5973C10.7367 7.77393 10.6673 7.94149 10.5408 8.06883C10.4142 8.19618 10.2471 8.26675 10.0705 8.26714H10.0681C9.89111 8.26714 9.72475 8.19815 9.59939 8.07277C9.47364 7.94701 9.40387 7.77945 9.40347 7.60124C9.40229 7.23222 9.69992 6.9314 10.0665 6.93021Z" fill="#F97316"/>
</g>
<defs>
<clipPath id="clip0_6627_11294">
<rect width="16" height="16" fill="white"/>
</clipPath>
</defs>
</svg>
