<svg width="24" height="24" viewBox="0 0 24 24" fill="none" xmlns="http://www.w3.org/2000/svg">
<g id="sheep" clip-path="url(#clip0_6689_110561)">
<path id="icon" fill-rule="evenodd" clip-rule="evenodd" d="M23.2092 5.00441C22.2613 4.24921 21.1556 3.81927 19.9227 3.72642C18.8743 3.64718 17.8306 3.86067 16.6391 4.39706C15.1827 5.05291 13.9237 4.94054 12.7896 4.05287C12.1876 3.58212 11.808 3.58153 11.2261 4.04991C10.5745 4.57447 9.84837 4.81872 9.0087 4.79979C8.27251 4.78264 7.59368 4.49523 6.99467 4.24152C4.8878 3.3503 2.85485 3.56616 0.951396 4.88377C0.358895 5.2936 0.014156 5.93112 0.00410358 6.6325C-0.00535751 7.33921 0.325781 7.99092 0.912369 8.42145C1.67517 8.98031 2.50065 9.34638 3.36575 9.50901C3.63894 9.56046 3.91922 9.59239 4.19005 9.62256L4.25871 9.6304L4.25872 9.63041C4.33321 9.63889 4.40751 9.64735 4.48216 9.65686C4.48496 9.70768 4.48722 9.75851 4.48949 9.80951L4.4928 9.88277C4.49576 9.95018 4.49872 10.0176 4.50226 10.085C4.61343 12.2241 5.14739 14.2176 6.08936 16.0089C6.51334 16.8156 6.81195 17.5755 7.00177 18.3313C7.2856 19.4609 7.85386 20.3775 8.69057 21.0564C9.62545 21.8146 10.7726 22.2102 11.9446 22.2102C12.4975 22.2102 13.0557 22.1221 13.6003 21.9423C15.2968 21.3823 16.5728 20.0256 17.014 18.3124C17.2174 17.5229 17.5077 16.7807 17.9015 16.0432C18.7323 14.4885 19.2515 12.7457 19.4449 10.8639C19.4756 10.5629 19.4969 10.2559 19.517 9.95846C19.5236 9.85853 19.5307 9.7586 19.5378 9.6582L19.5379 9.65735L19.5395 9.63497C19.559 9.63261 19.5762 9.63143 19.5927 9.63084C20.8162 9.606 21.9852 9.20858 23.0661 8.44806C23.6415 8.04355 23.9832 7.41372 24.0039 6.71944C24.0241 6.04821 23.7349 5.42311 23.2098 5.005L23.2092 5.00441ZM21.997 6.66858C21.997 6.71589 21.9621 6.76615 21.8994 6.80992C21.1089 7.36227 20.2769 7.63431 19.4342 7.62071L18.8193 5.76967C19.8825 5.57983 20.9161 5.83117 21.8929 6.51718C21.9609 6.56449 21.9982 6.61831 21.9976 6.66798L21.997 6.66858ZM5.18997 5.77026L4.56672 7.64377C4.49356 7.63363 4.41848 7.62445 4.3406 7.61492L4.3406 7.61492L4.31541 7.61184C4.03571 7.57872 3.74715 7.54383 3.47869 7.45453C3.03343 7.30668 2.60295 7.07604 2.18607 6.8525L2.14349 6.83002C2.0613 6.78626 2.01222 6.72949 2.00867 6.67449C2.00572 6.62659 2.03765 6.57573 2.09915 6.53256C2.86963 5.98434 3.67619 5.70816 4.50522 5.70816C4.7317 5.70816 4.96054 5.72886 5.18997 5.77026ZM13.1686 19.9748C13.1119 19.9931 13.0604 20.0091 13.009 20.0215V20.0212C13.009 19.9497 13.009 19.8783 13.0084 19.8074L13.0084 19.8014C13.0072 19.4482 13.0061 19.1147 13.0167 18.7743C13.0226 18.7613 13.0527 18.7205 13.1326 18.6637C13.2172 18.6035 13.3083 18.5462 13.3966 18.4907L13.3966 18.4907L13.3998 18.4886L13.4002 18.4884L13.4002 18.4884C13.5503 18.3939 13.7051 18.2963 13.8433 18.177C14.2655 17.8109 14.3182 17.1929 13.964 16.7695C13.6157 16.3531 13.0107 16.2999 12.5572 16.6453C12.0918 16.9989 11.9257 16.9977 11.4426 16.637C10.9932 16.3005 10.4113 16.3502 10.0589 16.7547C9.69404 17.1734 9.73543 17.7926 10.1535 18.1646C10.4013 18.3851 10.6177 18.5336 10.8347 18.6318C10.9861 18.6998 11.0097 18.7642 11.005 18.9221C10.9967 19.2066 10.9979 19.4881 10.9997 19.7861C10.9997 19.8621 11.0003 19.9392 11.0008 20.0169L11.0009 20.018C10.4917 19.8926 10.0707 19.6489 9.7171 19.277C9.31087 18.85 9.03768 18.3065 8.88216 17.6163C8.70949 16.8493 8.42743 16.1136 8.02002 15.3667C7.09283 13.6665 6.57424 11.7894 6.47904 9.78755C6.427 8.70177 6.57129 7.76323 6.91957 6.91932C6.96798 6.80183 7.02583 6.68669 7.08721 6.56449L7.08751 6.5639C7.10197 6.53555 7.11587 6.50719 7.13031 6.47773L7.13037 6.47762L7.13127 6.47578C7.9189 6.73245 8.66514 6.83949 9.41021 6.80223C10.2735 6.75906 11.0765 6.51659 11.8648 6.05945C11.9334 6.01982 12.0629 6.01036 12.1025 6.03402C13.508 6.87379 15.0171 7.03405 16.7142 6.52487C16.7378 6.51777 16.7609 6.51068 16.7845 6.50299C16.8141 6.49353 16.8431 6.48465 16.8715 6.47638C17.1588 6.9619 17.3481 7.53318 17.4338 8.17543C17.7377 10.46 17.3067 12.7315 16.1152 15.1195C15.7208 15.9096 15.3246 16.7707 15.0969 17.711C14.8072 18.9085 14.1762 19.6495 13.1686 19.976V19.9748ZM8.91309 10.3973H8.90244C8.36493 10.3973 7.90725 10.8497 7.90134 11.3902C7.89838 11.6546 8.00009 11.9065 8.18872 12.0993C8.37735 12.2921 8.62748 12.3997 8.89239 12.4027H8.90244C9.16499 12.4027 9.41275 12.301 9.60079 12.1164C9.79119 11.929 9.89763 11.6788 9.9 11.4115C9.90532 10.8586 9.46242 10.4038 8.91309 10.3979V10.3973ZM15.1037 10.3973H15.1061H15.1067C15.6483 10.3973 16.1066 10.855 16.1084 11.3979C16.109 11.6628 16.0049 11.9142 15.8151 12.1052C15.6253 12.2962 15.3745 12.4021 15.1096 12.4027H15.1061C14.8406 12.4027 14.591 12.2992 14.403 12.1111C14.2144 11.9225 14.1097 11.6711 14.1091 11.4038C14.1073 10.8503 14.5538 10.399 15.1037 10.3973Z" fill="black"/>
</g>
<defs>
<clipPath id="clip0_6689_110561">
<rect width="24" height="24" fill="white" transform="translate(0.00390625)"/>
</clipPath>
</defs>
</svg>
