<svg width="24" height="24" viewBox="0 0 24 24" fill="none" xmlns="http://www.w3.org/2000/svg">
<g id="toolsgarden" clip-path="url(#clip0_6689_110568)">
<path id="Union" fill-rule="evenodd" clip-rule="evenodd" d="M6.26586 10.75H6.88562L6.90562 10.76C7.92562 10.76 8.92562 10.34 9.64563 9.62C10.3756 8.89 10.7756 7.91 10.7756 6.88V0.88C10.7756 0.39 10.3856 0 9.89563 0C9.40563 0 9.01562 0.4 9.01562 0.88V6.88C9.01562 7.44 8.79562 7.98 8.39563 8.38C8.00563 8.77 7.45562 9 6.89562 9H6.26586V0.88C6.26586 0.39 5.87586 0 5.38586 0C4.89586 0 4.50586 0.4 4.50586 0.88V9H3.89563C3.33563 9 2.79563 8.78 2.39563 8.38C1.99563 7.98 1.77562 7.45 1.77562 6.88V0.88C1.77562 0.39 1.38563 0 0.895625 0C0.405625 0 0.015625 0.4 0.015625 0.88V6.87C0.015625 7.91 0.425625 8.88 1.14562 9.61C1.86563 10.34 2.86563 10.75 3.88563 10.75H4.50586V13.6878C4.20658 13.7989 3.92878 13.9697 3.69586 14.2C3.25586 14.65 3.00586 15.25 3.00586 15.88V21.88C3.00586 22.51 3.25586 23.11 3.70586 23.56C4.15586 24 4.75586 24.25 5.38586 24.25L5.37586 24.26C6.00586 24.26 6.61586 24 7.05586 23.56C7.50586 23.12 7.75586 22.5 7.75586 21.88V15.88C7.75586 15.25 7.50586 14.65 7.05586 14.2C6.8292 13.9733 6.55843 13.8044 6.26586 13.6932V10.75ZM4.94586 15.43C5.05586 15.32 5.21586 15.25 5.38586 15.25V15.26C5.41496 15.26 5.4437 15.2586 5.47204 15.2558C5.60217 15.2736 5.72746 15.3316 5.82586 15.43C5.93586 15.55 6.00586 15.7 6.00586 15.87V21.87C6.00586 22.03 5.94586 22.19 5.82586 22.31C5.59586 22.54 5.17586 22.54 4.94586 22.31C4.83586 22.2 4.76586 22.04 4.76586 21.87V15.87C4.76586 15.7 4.82586 15.55 4.94586 15.43ZM17.2056 23.55C17.6556 24 18.2556 24.25 18.8856 24.25C19.5156 24.25 20.1256 23.99 20.5656 23.55C21.0156 23.11 21.2656 22.49 21.2656 21.87V15.87C21.2656 15.24 21.0156 14.64 20.5656 14.19C20.3368 13.9612 20.0624 13.7912 19.7659 13.68V12.25H21.7961C22.136 12.25 22.456 12.18 22.7561 12.05C23.066 11.92 23.336 11.72 23.556 11.48C23.776 11.24 23.946 10.95 24.056 10.64C24.166 10.33 24.206 10 24.176 9.67C23.766 4.92 21.6761 0 18.8761 0C16.076 0 13.986 4.91 13.576 9.67C13.546 10 13.586 10.33 13.696 10.64C13.806 10.96 13.976 11.24 14.196 11.48C14.416 11.72 14.686 11.92 14.986 12.05C15.286 12.18 15.616 12.25 15.946 12.25H18.0059V13.6799C17.7091 13.791 17.4345 13.9611 17.2056 14.19C16.7656 14.64 16.5156 15.24 16.5156 15.87V21.87C16.5156 22.51 16.7556 23.1 17.2056 23.55ZM18.0059 10.51H15.936C15.856 10.51 15.766 10.5 15.686 10.46C15.606 10.42 15.536 10.37 15.476 10.31C15.416 10.24 15.376 10.17 15.346 10.08C15.316 9.99 15.316 9.91 15.316 9.82C15.736 4.97 17.736 1.75 18.8761 1.75L18.8561 1.76C19.996 1.76 22.006 4.98 22.416 9.83C22.426 9.92 22.416 10.01 22.386 10.09C22.366 10.17 22.316 10.24 22.2561 10.31C22.196 10.37 22.1261 10.43 22.0461 10.46C21.9561 10.49 21.876 10.51 21.786 10.51H19.7659V7.61999C19.7659 7.12999 19.3759 6.73999 18.8859 6.73999C18.3959 6.73999 18.0059 7.13999 18.0059 7.61999V10.51ZM18.4456 15.43C18.5556 15.31 18.7156 15.25 18.8856 15.25C19.0456 15.25 19.2056 15.31 19.3256 15.43C19.4356 15.55 19.5056 15.7 19.5056 15.87V21.87C19.5056 22.03 19.4456 22.19 19.3256 22.31C19.0956 22.54 18.6756 22.54 18.4456 22.31C18.3356 22.2 18.2656 22.04 18.2656 21.87V15.87C18.2656 15.7 18.3256 15.55 18.4456 15.43Z" fill="black"/>
</g>
<defs>
<clipPath id="clip0_6689_110568">
<rect width="24" height="24" fill="white" transform="translate(0.00390625)"/>
</clipPath>
</defs>
</svg>
